<svg width="162" height="31" viewBox="0 0 162 31" fill="none" xmlns="http://www.w3.org/2000/svg">
<path d="M12.832 0.887999L13.216 5.496C13.2373 5.58133 13.216 5.656 13.152 5.72C13.1093 5.76267 13.0453 5.784 12.96 5.784H6.464C6.272 5.784 6.176 5.88 6.176 6.072V8.856C6.176 9.048 6.272 9.144 6.464 9.144H11.232C11.424 9.144 11.52 9.24 11.52 9.432L11.488 14.008C11.488 14.2 11.392 14.296 11.2 14.296H6.464C6.272 14.296 6.176 14.392 6.176 14.584V22.776C6.176 22.9467 6.09067 23.032 5.92 23.032H0.768C0.576 23.032 0.48 22.9467 0.48 22.776V0.919998C0.48 0.727998 0.576 0.631998 0.768 0.631998H12.544C12.7147 0.631998 12.8107 0.717332 12.832 0.887999ZM19.3828 6.04C19.5534 6.04 19.6388 6.12533 19.6388 6.296V22.744C19.6388 22.9147 19.5534 23 19.3828 23H14.6148C14.4441 23 14.3588 22.9147 14.3588 22.744V6.296C14.3588 6.12533 14.4441 6.04 14.6148 6.04H19.3828ZM19.3828 0.695999C19.5534 0.695999 19.6388 0.781333 19.6388 0.952V4.44C19.6388 4.61067 19.5534 4.696 19.3828 4.696H14.6148C14.4441 4.696 14.3588 4.61067 14.3588 4.44V0.952C14.3588 0.781333 14.4441 0.695999 14.6148 0.695999H19.3828ZM30.0085 6.04C30.2005 6.04 30.2965 6.136 30.2965 6.328L30.1365 10.296C30.1152 10.488 30.0085 10.5733 29.8165 10.552C28.9418 10.4667 28.3018 10.4773 27.8965 10.584C27.3845 10.712 27.0325 10.9893 26.8405 11.416C26.6485 11.8 26.5525 12.3867 26.5525 13.176V22.744C26.5525 22.9147 26.4672 23 26.2965 23H21.2085C21.0378 23 20.9525 22.9147 20.9525 22.744V6.296C20.9525 6.12533 21.0378 6.04 21.2085 6.04H25.9765C26.1472 6.04 26.2325 6.12533 26.2325 6.296V6.776C26.2325 6.84 26.2538 6.88267 26.2965 6.904C26.3392 6.92533 26.3818 6.92533 26.4245 6.904C27.3205 6.34933 28.5152 6.06133 30.0085 6.04ZM40.8443 13.272C41.2069 13.4427 41.5483 13.6453 41.8683 13.88C42.2096 14.0933 42.5829 14.392 42.9883 14.776C43.4149 15.16 43.7456 15.6293 43.9803 16.184C44.2149 16.7387 44.3216 17.3253 44.3003 17.944C44.2576 18.5413 44.1083 19.1707 43.8523 19.832C43.3403 20.8987 42.5296 21.7413 41.4203 22.36C40.3109 22.9573 39.0309 23.256 37.5803 23.256C37.1749 23.256 36.7589 23.2347 36.3323 23.192C35.0096 23.0427 33.8683 22.7013 32.9083 22.168C31.9269 21.4853 31.1909 20.5573 30.7003 19.384C30.6576 19.32 30.6576 19.256 30.7003 19.192C30.7429 19.1067 30.8069 19.0533 30.8923 19.032L35.5323 18.04C35.6603 17.9973 35.7563 18.0293 35.8203 18.136C36.1189 18.584 36.5136 18.84 37.0043 18.904C37.5589 18.968 37.9749 18.872 38.2523 18.616C38.4443 18.424 38.5296 18.2 38.5083 17.944C38.4656 17.6453 38.3056 17.3893 38.0283 17.176C37.7509 16.9627 37.1643 16.6427 36.2683 16.216H36.2363C35.7029 15.96 35.2763 15.7467 34.9563 15.576C34.5936 15.4267 34.2629 15.2667 33.9643 15.096H33.9323C33.8683 15.0533 33.8256 15.0213 33.8043 15C33.2709 14.7013 32.8016 14.3813 32.3963 14.04C32.0123 13.6773 31.7029 13.304 31.4683 12.92C31.2336 12.5147 31.0736 12.0987 30.9883 11.672C30.8816 11.1173 30.9136 10.5413 31.0843 9.944C31.2549 9.34667 31.4256 8.92 31.5963 8.664C31.7669 8.38667 31.9269 8.14133 32.0763 7.928C32.4389 7.52267 32.8549 7.17067 33.3243 6.872C34.7963 5.95467 36.5029 5.60267 38.4443 5.816C39.5963 5.96533 40.6203 6.27467 41.5163 6.744C41.9429 6.95733 42.3376 7.21333 42.7003 7.512C43.3403 8.10933 43.7456 8.824 43.9163 9.656C43.9589 9.82667 43.8949 9.93333 43.7243 9.976L39.1483 10.872C38.9989 10.9147 38.8923 10.8613 38.8283 10.712C38.6576 10.3067 38.3269 10.072 37.8363 10.008C37.4096 9.96533 37.0683 10.072 36.8123 10.328C36.6416 10.5413 36.5776 10.7547 36.6203 10.968C36.7696 11.4373 37.4736 11.928 38.7323 12.44C39.1376 12.6107 39.4576 12.7387 39.6923 12.824C40.0976 12.9733 40.4816 13.1227 40.8443 13.272ZM54.964 18.584C55.0493 18.584 55.1133 18.616 55.156 18.68C55.22 18.744 55.252 18.8187 55.252 18.904L54.644 22.904C54.6227 23.0533 54.5373 23.128 54.388 23.128C53.0013 23.2133 52.1267 23.256 51.764 23.256C51.7427 23.256 51.7213 23.256 51.7 23.256C50.2493 23.192 49.1507 22.7973 48.404 22.072C47.6573 21.3467 47.284 20.3227 47.284 19V10.84C47.284 10.6693 47.188 10.584 46.996 10.584H45.236C45.0653 10.584 44.98 10.488 44.98 10.296V6.296C44.98 6.104 45.0653 6.008 45.236 6.008H46.996C47.188 6.008 47.284 5.92267 47.284 5.752V1.112C47.284 0.919999 47.3693 0.823999 47.54 0.823999H52.308C52.4787 0.823999 52.564 0.919999 52.564 1.112V5.752C52.564 5.92267 52.6493 6.008 52.82 6.008H54.58C54.772 6.008 54.868 6.104 54.868 6.296V10.296C54.868 10.488 54.772 10.584 54.58 10.584H52.82C52.6493 10.584 52.564 10.6693 52.564 10.84C52.564 14.5733 52.564 16.4507 52.564 16.472V16.568C52.5427 17.3787 52.66 17.9333 52.916 18.232C53.172 18.4667 53.556 18.584 54.068 18.584H54.964ZM76.8915 6.04C76.9768 6.04 77.0408 6.08267 77.0835 6.168C77.1475 6.232 77.1688 6.30667 77.1475 6.392L71.2595 22.808C71.2168 22.936 71.1422 23 71.0355 23H66.0755C65.9475 23 65.8622 22.936 65.8195 22.808L59.9315 6.392C59.9102 6.30667 59.9315 6.232 59.9955 6.168C60.0382 6.08267 60.1022 6.04 60.1875 6.04H64.9235C65.0515 6.04 65.1368 6.104 65.1795 6.232L68.5395 15.64L71.8995 6.232C71.9422 6.104 72.0275 6.04 72.1555 6.04H76.8915ZM93.6433 12.152C93.8993 12.9627 94.0273 13.7947 94.0273 14.648C94.0273 15.1387 93.9739 15.6613 93.8673 16.216C93.8459 16.3653 93.7606 16.44 93.6112 16.44H81.7393C81.6326 16.44 81.5473 16.4933 81.4833 16.6C81.4406 16.6853 81.4406 16.7707 81.4833 16.856C81.8673 17.4747 82.3686 17.9653 82.9873 18.328C83.6059 18.6907 84.2673 18.872 84.9713 18.872C86.2726 18.872 87.3393 18.3493 88.1713 17.304C88.2353 17.1973 88.3206 17.1547 88.4273 17.176L92.9713 18.008C93.0566 18.0293 93.1206 18.0827 93.1632 18.168C93.2059 18.232 93.2059 18.3067 93.1632 18.392C93.0353 18.6907 92.9393 18.8933 92.8753 19L92.8113 19.128C92.7259 19.2347 92.6406 19.352 92.5553 19.48C92.4699 19.6507 92.3739 19.8 92.2673 19.928L92.2033 19.992C92.1606 20.0347 92.1286 20.0773 92.1073 20.12L92.0753 20.184C92.0113 20.248 91.9473 20.3227 91.8833 20.408L91.8193 20.472C91.7126 20.5787 91.6059 20.6853 91.4993 20.792L91.4353 20.856C91.3713 20.9413 91.3073 21.016 91.2433 21.08H91.2113C91.1259 21.1653 91.0406 21.24 90.9553 21.304L90.8913 21.4L90.7633 21.304L90.8593 21.4C90.7313 21.5067 90.6139 21.6027 90.5073 21.688L90.4113 21.784C90.2619 21.8693 90.1126 21.9653 89.9633 22.072L89.9313 22.104C89.7606 22.2107 89.5899 22.3067 89.4193 22.392L89.3553 22.424C89.3126 22.4453 89.2806 22.4667 89.2593 22.488L89.2273 22.52C89.1419 22.5413 89.0673 22.5733 89.0033 22.616L88.9713 22.648C88.8006 22.712 88.6406 22.776 88.4913 22.84L88.4593 22.872C88.3526 22.9147 88.2566 22.9467 88.1713 22.968L88.0753 23C87.9473 23.0427 87.8299 23.0853 87.7233 23.128C87.5953 23.1707 87.4566 23.2027 87.3073 23.224L87.2113 23.256C86.9553 23.32 86.6993 23.3733 86.4433 23.416L86.3473 23.448C86.0699 23.4693 85.8033 23.4907 85.5473 23.512H85.4193C85.2699 23.5333 85.1313 23.544 85.0033 23.544C84.8753 23.544 84.7366 23.5333 84.5873 23.512C84.5446 23.512 84.5233 23.512 84.5233 23.512H84.4913C84.3846 23.512 84.2779 23.5013 84.1713 23.48H84.1393C84.1179 23.48 84.0859 23.48 84.0433 23.48C83.8939 23.4587 83.7659 23.4373 83.6593 23.416H83.5633C83.4566 23.3947 83.3499 23.3733 83.2433 23.352L83.1153 23.32C83.0299 23.2987 82.9339 23.2773 82.8273 23.256H82.7953C82.7739 23.256 82.7526 23.2453 82.7313 23.224C82.5819 23.2027 82.4539 23.1707 82.3473 23.128C82.2406 23.1067 82.1126 23.064 81.9633 23C81.9206 23 81.8886 22.9893 81.8673 22.968C81.7606 22.9253 81.6646 22.8933 81.5793 22.872L81.5473 22.84C81.5259 22.84 81.5046 22.8293 81.4833 22.808C81.3553 22.7653 81.2273 22.712 81.0993 22.648C81.0139 22.6053 80.8966 22.552 80.7473 22.488C80.7473 22.4667 80.7259 22.4453 80.6833 22.424H80.6513C80.5659 22.3813 80.4806 22.3387 80.3953 22.296L80.2993 22.232C80.1926 22.1467 80.0859 22.072 79.9793 22.008C78.8913 21.2827 78.0059 20.3653 77.3233 19.256C77.2593 19.1707 77.2059 19.0747 77.1633 18.968L77.1313 18.936C77.0886 18.872 77.0353 18.776 76.9713 18.648V18.616C76.9499 18.5947 76.9286 18.5627 76.9073 18.52C76.7366 18.1787 76.5873 17.816 76.4593 17.432C76.3953 17.2187 76.3419 17.0267 76.2993 16.856C76.2566 16.728 76.2246 16.5893 76.2033 16.44C76.0966 15.992 76.0326 15.544 76.0113 15.096C76.0113 14.9467 76.0113 14.7973 76.0113 14.648C76.0113 14.4987 76.0113 14.3493 76.0113 14.2C76.0539 13.4107 76.2033 12.632 76.4593 11.864C76.5446 11.6293 76.6299 11.4053 76.7153 11.192C76.7579 11.0853 76.8113 10.968 76.8753 10.84C76.8966 10.8187 76.9073 10.7867 76.9073 10.744L76.9713 10.68C76.9713 10.6587 76.9819 10.6373 77.0033 10.616C77.0033 10.5733 77.0139 10.5413 77.0353 10.52L77.1313 10.392C77.1953 10.264 77.2593 10.1467 77.3233 10.04C78.0059 8.93067 78.8913 8.01333 79.9793 7.288C80.0859 7.224 80.1926 7.14933 80.2993 7.064L80.3953 7.032C80.4806 6.968 80.5659 6.91467 80.6513 6.872H80.6833C80.6833 6.872 80.6939 6.872 80.7153 6.872C80.7366 6.85067 80.7579 6.82933 80.7793 6.808C80.9073 6.744 81.0139 6.69067 81.0993 6.648C81.2273 6.584 81.3553 6.53067 81.4833 6.488C81.4833 6.488 81.4939 6.488 81.5153 6.488C81.5366 6.46667 81.5473 6.456 81.5473 6.456L81.5793 6.424C81.6646 6.40267 81.7606 6.37067 81.8673 6.328C81.9099 6.30667 81.9419 6.296 81.9633 6.296C82.1126 6.25333 82.2406 6.21067 82.3473 6.168C82.4539 6.12533 82.5819 6.09333 82.7313 6.072C82.7313 6.05067 82.7419 6.04 82.7633 6.04C82.7846 6.04 82.7953 6.04 82.7953 6.04H82.8273C82.9126 6.01867 83.0086 5.99733 83.1153 5.976L83.2113 5.944C83.3393 5.92267 83.4779 5.90133 83.6273 5.88H83.6593C83.7659 5.85867 83.8939 5.83733 84.0433 5.816C84.0646 5.816 84.0859 5.816 84.1073 5.816C84.1286 5.816 84.1393 5.816 84.1393 5.816H84.1713C84.2779 5.79467 84.3846 5.784 84.4913 5.784C84.5126 5.784 84.5339 5.784 84.5553 5.784C84.5766 5.784 84.5873 5.784 84.5873 5.784C84.7366 5.784 84.8753 5.784 85.0033 5.784C85.1313 5.784 85.2699 5.784 85.4193 5.784H85.5153C85.7926 5.80533 86.0699 5.83733 86.3473 5.88H86.4433C86.6993 5.92267 86.9553 5.976 87.2113 6.04L87.3073 6.072C87.4566 6.09333 87.5953 6.12533 87.7233 6.168C87.8299 6.21067 87.9473 6.25333 88.0753 6.296C88.0966 6.296 88.1286 6.30667 88.1713 6.328C88.2566 6.37067 88.3526 6.40267 88.4593 6.424L88.4913 6.456C88.6406 6.52 88.7899 6.584 88.9393 6.648L89.0033 6.68C89.0459 6.70133 89.1099 6.73333 89.1953 6.776L89.2273 6.808L89.1633 6.936L89.2593 6.808C89.3019 6.82933 89.3339 6.85067 89.3553 6.872C89.5473 6.97867 89.7393 7.08533 89.9313 7.192V7.224C90.0806 7.30933 90.2299 7.40533 90.3793 7.512L90.4113 7.544C90.4326 7.56533 90.4646 7.58667 90.5073 7.608C90.6139 7.69333 90.7313 7.78933 90.8593 7.896L90.9233 7.96C91.0299 8.04533 91.1259 8.13067 91.2113 8.216H91.2433C91.3073 8.30133 91.3713 8.376 91.4353 8.44L91.4993 8.504C91.6059 8.61067 91.7126 8.71733 91.8193 8.824L91.7233 8.92L91.8193 8.856L91.8833 8.888C91.9259 8.952 91.9793 9.02667 92.0433 9.112L92.1073 9.176C92.1926 9.26133 92.2566 9.34667 92.2993 9.432L92.3313 9.464C92.3739 9.528 92.4273 9.60267 92.4913 9.688L92.5873 9.816C92.6299 9.90133 92.6726 9.96533 92.7153 10.008L92.8753 10.296C93.1953 10.8933 93.4513 11.512 93.6433 12.152ZM88.4593 12.728C88.5446 12.728 88.6086 12.696 88.6513 12.632C88.7153 12.568 88.7366 12.4933 88.7153 12.408C88.6086 11.768 88.2246 11.2347 87.5633 10.808C86.9019 10.3813 86.1233 10.168 85.2273 10.168C84.6726 10.168 84.1393 10.264 83.6273 10.456C83.1153 10.648 82.6886 10.9147 82.3473 11.256C82.0059 11.5973 81.8033 11.9813 81.7393 12.408C81.7179 12.472 81.7286 12.5467 81.7713 12.632C81.8353 12.696 81.9099 12.728 81.9953 12.728H88.4593ZM104.563 13.272C104.926 13.4427 105.267 13.6453 105.587 13.88C105.928 14.0933 106.302 14.392 106.707 14.776C107.134 15.16 107.464 15.6293 107.699 16.184C107.934 16.7387 108.04 17.3253 108.019 17.944C107.976 18.5413 107.827 19.1707 107.571 19.832C107.059 20.8987 106.248 21.7413 105.139 22.36C104.03 22.9573 102.75 23.256 101.299 23.256C100.894 23.256 100.478 23.2347 100.051 23.192C98.7283 23.0427 97.587 22.7013 96.627 22.168C95.6457 21.4853 94.9097 20.5573 94.419 19.384C94.3763 19.32 94.3763 19.256 94.419 19.192C94.4617 19.1067 94.5257 19.0533 94.611 19.032L99.251 18.04C99.379 17.9973 99.475 18.0293 99.539 18.136C99.8377 18.584 100.232 18.84 100.723 18.904C101.278 18.968 101.694 18.872 101.971 18.616C102.163 18.424 102.248 18.2 102.227 17.944C102.184 17.6453 102.024 17.3893 101.747 17.176C101.47 16.9627 100.883 16.6427 99.987 16.216H99.955C99.4217 15.96 98.995 15.7467 98.675 15.576C98.3123 15.4267 97.9817 15.2667 97.683 15.096H97.651C97.587 15.0533 97.5443 15.0213 97.523 15C96.9897 14.7013 96.5203 14.3813 96.115 14.04C95.731 13.6773 95.4217 13.304 95.187 12.92C94.9523 12.5147 94.7923 12.0987 94.707 11.672C94.6003 11.1173 94.6323 10.5413 94.803 9.944C94.9737 9.34667 95.1443 8.92 95.315 8.664C95.4857 8.38667 95.6457 8.14133 95.795 7.928C96.1577 7.52267 96.5737 7.17067 97.043 6.872C98.515 5.95467 100.222 5.60267 102.163 5.816C103.315 5.96533 104.339 6.27467 105.235 6.744C105.662 6.95733 106.056 7.21333 106.419 7.512C107.059 8.10933 107.464 8.824 107.635 9.656C107.678 9.82667 107.614 9.93333 107.443 9.976L102.867 10.872C102.718 10.9147 102.611 10.8613 102.547 10.712C102.376 10.3067 102.046 10.072 101.555 10.008C101.128 9.96533 100.787 10.072 100.531 10.328C100.36 10.5413 100.296 10.7547 100.339 10.968C100.488 11.4373 101.192 11.928 102.451 12.44C102.856 12.6107 103.176 12.7387 103.411 12.824C103.816 12.9733 104.2 13.1227 104.563 13.272ZM118.683 18.584C118.768 18.584 118.832 18.616 118.875 18.68C118.939 18.744 118.971 18.8187 118.971 18.904L118.363 22.904C118.341 23.0533 118.256 23.128 118.107 23.128C116.72 23.2133 115.845 23.256 115.483 23.256C115.461 23.256 115.44 23.256 115.419 23.256C113.968 23.192 112.869 22.7973 112.123 22.072C111.376 21.3467 111.003 20.3227 111.003 19V10.84C111.003 10.6693 110.907 10.584 110.715 10.584H108.955C108.784 10.584 108.699 10.488 108.699 10.296V6.296C108.699 6.104 108.784 6.008 108.955 6.008H110.715C110.907 6.008 111.003 5.92267 111.003 5.752V1.112C111.003 0.919999 111.088 0.823999 111.259 0.823999H116.027C116.197 0.823999 116.283 0.919999 116.283 1.112V5.752C116.283 5.92267 116.368 6.008 116.539 6.008H118.299C118.491 6.008 118.587 6.104 118.587 6.296V10.296C118.587 10.488 118.491 10.584 118.299 10.584H116.539C116.368 10.584 116.283 10.6693 116.283 10.84C116.283 14.5733 116.283 16.4507 116.283 16.472V16.568C116.261 17.3787 116.379 17.9333 116.635 18.232C116.891 18.4667 117.275 18.584 117.787 18.584H118.683ZM124.789 6.04C124.96 6.04 125.045 6.12533 125.045 6.296V22.744C125.045 22.9147 124.96 23 124.789 23H120.021C119.85 23 119.765 22.9147 119.765 22.744V6.296C119.765 6.12533 119.85 6.04 120.021 6.04H124.789ZM124.789 0.695999C124.96 0.695999 125.045 0.781333 125.045 0.952V4.44C125.045 4.61067 124.96 4.696 124.789 4.696H120.021C119.85 4.696 119.765 4.61067 119.765 4.44V0.952C119.765 0.781333 119.85 0.695999 120.021 0.695999H124.789ZM140.111 7.544C140.943 8.35467 141.487 9.16533 141.743 9.976C142.021 10.7867 142.159 11.8533 142.159 13.176V22.744C142.159 22.9147 142.063 23 141.871 23H136.815C136.645 23 136.559 22.9147 136.559 22.744V13.464C136.559 12.6107 136.453 11.96 136.239 11.512C136.111 11.256 135.951 11.0533 135.759 10.904C135.461 10.6693 135.045 10.552 134.511 10.552C133.466 10.552 132.815 10.84 132.559 11.416C132.367 11.8 132.271 12.4827 132.271 13.464V22.744C132.271 22.9147 132.186 23 132.015 23H126.927C126.757 23 126.671 22.9147 126.671 22.744V6.296C126.671 6.12533 126.757 6.04 126.927 6.04H131.695C131.866 6.04 131.951 6.12533 131.951 6.296V6.776C131.951 6.81867 131.973 6.86133 132.015 6.904C132.079 6.92533 132.133 6.91467 132.175 6.872C132.879 6.38133 133.626 6.06133 134.415 5.912C135.205 5.76267 135.887 5.74133 136.463 5.848C137.039 5.93333 137.605 6.09333 138.159 6.328C138.714 6.56267 139.087 6.75467 139.279 6.904C139.493 7.032 139.642 7.128 139.727 7.192C139.877 7.29867 140.005 7.416 140.111 7.544ZM161.729 6.072C161.9 6.072 161.985 6.168 161.985 6.36V19.704V21.4C161.985 24.3013 161.228 26.5307 159.713 28.088C158.198 29.6453 156.012 30.424 153.153 30.424H152.993C152.929 30.424 152.865 30.424 152.801 30.424C149.942 30.424 147.244 29.272 144.705 26.968C144.534 26.8187 144.534 26.68 144.705 26.552L148.193 23.864C148.321 23.7573 148.438 23.768 148.545 23.896C149.974 25.3467 151.51 26.0187 153.153 25.912C154.646 25.8053 155.702 25.3147 156.321 24.44C156.726 23.864 156.854 23.2027 156.705 22.456C156.684 22.328 156.62 22.296 156.513 22.36C155.148 23.128 153.665 23.512 152.065 23.512C149.59 23.512 147.478 22.648 145.729 20.92C143.98 19.192 143.105 17.112 143.105 14.68C143.105 12.2267 143.98 10.136 145.729 8.408C147.478 6.68 149.59 5.816 152.065 5.816C153.665 5.816 155.158 6.2 156.545 6.968C156.588 7.01067 156.63 7.02133 156.673 7C156.716 6.95733 156.737 6.91467 156.737 6.872V6.36C156.737 6.168 156.822 6.072 156.993 6.072H161.729ZM152.897 18.712C154.006 18.712 154.924 18.328 155.649 17.56C156.374 16.7707 156.737 15.8107 156.737 14.68C156.737 14.1893 156.652 13.7093 156.481 13.24C156.182 12.4293 155.713 11.7893 155.073 11.32C154.454 10.8507 153.729 10.616 152.897 10.616C151.766 10.616 150.796 11.0107 149.985 11.8C149.174 12.5893 148.769 13.5493 148.769 14.68C148.769 15.768 149.153 16.7067 149.921 17.496C150.689 18.2853 151.638 18.6907 152.769 18.712H152.801C152.844 18.712 152.876 18.712 152.897 18.712Z" fill="url(#paint0_linear_5685_11968)"/>
<defs>
<linearGradient id="paint0_linear_5685_11968" x1="183.247" y1="-43.6856" x2="-22.8284" y2="-19.0034" gradientUnits="userSpaceOnUse">
<stop stop-color="#F3FC1F"/>
<stop offset="0.46875" stop-color="#F3FC1F"/>
<stop offset="1" stop-color="#00FF80"/>
</linearGradient>
</defs>
</svg>
