<svg width="215" height="31" viewBox="0 0 215 31" fill="none" xmlns="http://www.w3.org/2000/svg">
<path d="M10.72 9.752C12.576 10.6053 13.8987 11.5333 14.688 12.536C15.4773 13.5173 15.872 14.744 15.872 16.216C15.872 17.9653 15.456 19.4373 14.624 20.632C13.3653 22.488 11.2213 23.416 8.192 23.416C5.696 23.416 3.76533 22.776 2.4 21.496C2.016 21.1333 1.64267 20.664 1.28 20.088C0.938667 19.512 0.672 18.8293 0.48 18.04C0.437333 17.848 0.512 17.7307 0.704 17.688L5.792 16.632C5.96267 16.5893 6.06933 16.6533 6.112 16.824C6.21867 17.1867 6.368 17.496 6.56 17.752C6.77333 18.008 6.98667 18.1893 7.2 18.296C7.43467 18.3813 7.616 18.4453 7.744 18.488C7.89333 18.5093 8.032 18.52 8.16 18.52C8.544 18.52 8.896 18.4133 9.216 18.2C9.536 17.9867 9.77067 17.7307 9.92 17.432C10.0907 17.112 10.176 16.7813 10.176 16.44C10.176 15.9493 9.94133 15.5547 9.472 15.256C9.00267 14.936 7.92533 14.4027 6.24 13.656L5.952 13.56C5.504 13.368 5.12 13.1973 4.8 13.048C4.50133 12.8987 4.05333 12.632 3.456 12.248C2.88 11.864 2.41067 11.4587 2.048 11.032C1.68533 10.6053 1.35467 10.0507 1.056 9.368C0.757333 8.664 0.608 7.90667 0.608 7.096C0.608 5.66667 0.992 4.41867 1.76 3.352C2.54933 2.264 3.50933 1.464 4.64 0.952C5.792 0.439999 7.008 0.183998 8.288 0.183998C9.48267 0.183998 10.6027 0.397332 11.648 0.823999C11.9467 0.951999 12.2347 1.112 12.512 1.304C12.8107 1.47467 13.1413 1.72 13.504 2.04C13.888 2.33867 14.208 2.72267 14.464 3.192C14.7413 3.66133 14.9227 4.184 15.008 4.76C15.0507 4.90933 14.9867 5.00533 14.816 5.048L10.08 6.232C9.93067 6.27467 9.824 6.232 9.76 6.104C9.48267 5.42133 8.93867 5.08 8.128 5.08C7.63733 5.08 7.2 5.24 6.816 5.56C6.45333 5.85867 6.272 6.25333 6.272 6.744C6.272 7.21333 6.50667 7.608 6.976 7.928C7.44533 8.22667 8.69333 8.83467 10.72 9.752ZM34.4558 12.152C34.7118 12.9627 34.8398 13.7947 34.8398 14.648C34.8398 15.1387 34.7864 15.6613 34.6798 16.216C34.6584 16.3653 34.5731 16.44 34.4237 16.44H22.5518C22.4451 16.44 22.3598 16.4933 22.2958 16.6C22.2531 16.6853 22.2531 16.7707 22.2958 16.856C22.6798 17.4747 23.1811 17.9653 23.7998 18.328C24.4184 18.6907 25.0798 18.872 25.7838 18.872C27.0851 18.872 28.1518 18.3493 28.9838 17.304C29.0478 17.1973 29.1331 17.1547 29.2398 17.176L33.7838 18.008C33.8691 18.0293 33.9331 18.0827 33.9757 18.168C34.0184 18.232 34.0184 18.3067 33.9757 18.392C33.8478 18.6907 33.7518 18.8933 33.6878 19L33.6238 19.128C33.5384 19.2347 33.4531 19.352 33.3678 19.48C33.2824 19.6507 33.1864 19.8 33.0798 19.928L33.0158 19.992C32.9731 20.0347 32.9411 20.0773 32.9198 20.12L32.8878 20.184C32.8238 20.248 32.7598 20.3227 32.6958 20.408L32.6318 20.472C32.5251 20.5787 32.4184 20.6853 32.3118 20.792L32.2478 20.856C32.1838 20.9413 32.1198 21.016 32.0558 21.08H32.0238C31.9384 21.1653 31.8531 21.24 31.7678 21.304L31.7038 21.4L31.5758 21.304L31.6718 21.4C31.5438 21.5067 31.4264 21.6027 31.3198 21.688L31.2238 21.784C31.0744 21.8693 30.9251 21.9653 30.7758 22.072L30.7438 22.104C30.5731 22.2107 30.4024 22.3067 30.2318 22.392L30.1678 22.424C30.1251 22.4453 30.0931 22.4667 30.0718 22.488L30.0398 22.52C29.9544 22.5413 29.8798 22.5733 29.8158 22.616L29.7838 22.648C29.6131 22.712 29.4531 22.776 29.3038 22.84L29.2718 22.872C29.1651 22.9147 29.0691 22.9467 28.9838 22.968L28.8878 23C28.7598 23.0427 28.6424 23.0853 28.5358 23.128C28.4078 23.1707 28.2691 23.2027 28.1198 23.224L28.0238 23.256C27.7678 23.32 27.5118 23.3733 27.2558 23.416L27.1598 23.448C26.8824 23.4693 26.6158 23.4907 26.3598 23.512H26.2318C26.0824 23.5333 25.9438 23.544 25.8158 23.544C25.6878 23.544 25.5491 23.5333 25.3998 23.512C25.3571 23.512 25.3358 23.512 25.3358 23.512H25.3038C25.1971 23.512 25.0904 23.5013 24.9838 23.48H24.9518C24.9304 23.48 24.8984 23.48 24.8558 23.48C24.7064 23.4587 24.5784 23.4373 24.4718 23.416H24.3758C24.2691 23.3947 24.1624 23.3733 24.0558 23.352L23.9278 23.32C23.8424 23.2987 23.7464 23.2773 23.6398 23.256H23.6078C23.5864 23.256 23.5651 23.2453 23.5438 23.224C23.3944 23.2027 23.2664 23.1707 23.1598 23.128C23.0531 23.1067 22.9251 23.064 22.7758 23C22.7331 23 22.7011 22.9893 22.6798 22.968C22.5731 22.9253 22.4771 22.8933 22.3918 22.872L22.3598 22.84C22.3384 22.84 22.3171 22.8293 22.2958 22.808C22.1678 22.7653 22.0398 22.712 21.9118 22.648C21.8264 22.6053 21.7091 22.552 21.5598 22.488C21.5598 22.4667 21.5384 22.4453 21.4958 22.424H21.4638C21.3784 22.3813 21.2931 22.3387 21.2078 22.296L21.1118 22.232C21.0051 22.1467 20.8984 22.072 20.7918 22.008C19.7038 21.2827 18.8184 20.3653 18.1358 19.256C18.0718 19.1707 18.0184 19.0747 17.9758 18.968L17.9438 18.936C17.9011 18.872 17.8478 18.776 17.7838 18.648V18.616C17.7624 18.5947 17.7411 18.5627 17.7198 18.52C17.5491 18.1787 17.3998 17.816 17.2718 17.432C17.2078 17.2187 17.1544 17.0267 17.1118 16.856C17.0691 16.728 17.0371 16.5893 17.0158 16.44C16.9091 15.992 16.8451 15.544 16.8238 15.096C16.8238 14.9467 16.8238 14.7973 16.8238 14.648C16.8238 14.4987 16.8238 14.3493 16.8238 14.2C16.8664 13.4107 17.0158 12.632 17.2718 11.864C17.3571 11.6293 17.4424 11.4053 17.5278 11.192C17.5704 11.0853 17.6238 10.968 17.6878 10.84C17.7091 10.8187 17.7198 10.7867 17.7198 10.744L17.7838 10.68C17.7838 10.6587 17.7944 10.6373 17.8158 10.616C17.8158 10.5733 17.8264 10.5413 17.8478 10.52L17.9438 10.392C18.0078 10.264 18.0718 10.1467 18.1358 10.04C18.8184 8.93067 19.7038 8.01333 20.7918 7.288C20.8984 7.224 21.0051 7.14933 21.1118 7.064L21.2078 7.032C21.2931 6.968 21.3784 6.91467 21.4638 6.872H21.4958C21.4958 6.872 21.5064 6.872 21.5278 6.872C21.5491 6.85067 21.5704 6.82933 21.5918 6.808C21.7198 6.744 21.8264 6.69067 21.9118 6.648C22.0398 6.584 22.1678 6.53067 22.2958 6.488C22.2958 6.488 22.3064 6.488 22.3278 6.488C22.3491 6.46667 22.3598 6.456 22.3598 6.456L22.3918 6.424C22.4771 6.40267 22.5731 6.37067 22.6798 6.328C22.7224 6.30667 22.7544 6.296 22.7758 6.296C22.9251 6.25333 23.0531 6.21067 23.1598 6.168C23.2664 6.12533 23.3944 6.09333 23.5438 6.072C23.5438 6.05067 23.5544 6.04 23.5758 6.04C23.5971 6.04 23.6078 6.04 23.6078 6.04H23.6398C23.7251 6.01867 23.8211 5.99733 23.9278 5.976L24.0238 5.944C24.1518 5.92267 24.2904 5.90133 24.4398 5.88H24.4718C24.5784 5.85867 24.7064 5.83733 24.8558 5.816C24.8771 5.816 24.8984 5.816 24.9198 5.816C24.9411 5.816 24.9518 5.816 24.9518 5.816H24.9838C25.0904 5.79467 25.1971 5.784 25.3038 5.784C25.3251 5.784 25.3464 5.784 25.3678 5.784C25.3891 5.784 25.3998 5.784 25.3998 5.784C25.5491 5.784 25.6878 5.784 25.8158 5.784C25.9438 5.784 26.0824 5.784 26.2318 5.784H26.3278C26.6051 5.80533 26.8824 5.83733 27.1598 5.88H27.2558C27.5118 5.92267 27.7678 5.976 28.0238 6.04L28.1198 6.072C28.2691 6.09333 28.4078 6.12533 28.5358 6.168C28.6424 6.21067 28.7598 6.25333 28.8878 6.296C28.9091 6.296 28.9411 6.30667 28.9838 6.328C29.0691 6.37067 29.1651 6.40267 29.2718 6.424L29.3038 6.456C29.4531 6.52 29.6024 6.584 29.7518 6.648L29.8158 6.68C29.8584 6.70133 29.9224 6.73333 30.0078 6.776L30.0398 6.808L29.9758 6.936L30.0718 6.808C30.1144 6.82933 30.1464 6.85067 30.1678 6.872C30.3598 6.97867 30.5518 7.08533 30.7438 7.192V7.224C30.8931 7.30933 31.0424 7.40533 31.1918 7.512L31.2238 7.544C31.2451 7.56533 31.2771 7.58667 31.3198 7.608C31.4264 7.69333 31.5438 7.78933 31.6718 7.896L31.7358 7.96C31.8424 8.04533 31.9384 8.13067 32.0238 8.216H32.0558C32.1198 8.30133 32.1838 8.376 32.2478 8.44L32.3118 8.504C32.4184 8.61067 32.5251 8.71733 32.6318 8.824L32.5358 8.92L32.6318 8.856L32.6958 8.888C32.7384 8.952 32.7918 9.02667 32.8558 9.112L32.9198 9.176C33.0051 9.26133 33.0691 9.34667 33.1118 9.432L33.1438 9.464C33.1864 9.528 33.2398 9.60267 33.3038 9.688L33.3998 9.816C33.4424 9.90133 33.4851 9.96533 33.5278 10.008L33.6878 10.296C34.0078 10.8933 34.2638 11.512 34.4558 12.152ZM29.2718 12.728C29.3571 12.728 29.4211 12.696 29.4638 12.632C29.5278 12.568 29.5491 12.4933 29.5278 12.408C29.4211 11.768 29.0371 11.2347 28.3758 10.808C27.7144 10.3813 26.9358 10.168 26.0398 10.168C25.4851 10.168 24.9518 10.264 24.4398 10.456C23.9278 10.648 23.5011 10.9147 23.1598 11.256C22.8184 11.5973 22.6158 11.9813 22.5518 12.408C22.5304 12.472 22.5411 12.5467 22.5838 12.632C22.6478 12.696 22.7224 12.728 22.8078 12.728H29.2718ZM52.3685 18.936C52.5178 19.0213 52.5498 19.1493 52.4645 19.32C52.2512 19.6187 52.1018 19.832 52.0165 19.96C51.8458 20.1733 51.6645 20.3867 51.4725 20.6C51.4085 20.664 51.3125 20.76 51.1845 20.888C51.1632 20.9093 51.1525 20.9307 51.1525 20.952C51.0885 21.016 51.0032 21.0907 50.8965 21.176C50.8538 21.1973 50.8112 21.24 50.7685 21.304C50.7258 21.3253 50.6832 21.3573 50.6405 21.4C49.2965 22.5093 47.7605 23.192 46.0325 23.448C45.9898 23.448 45.9365 23.448 45.8725 23.448C45.7872 23.4693 45.7125 23.48 45.6485 23.48C45.5418 23.5013 45.4352 23.512 45.3285 23.512C45.2858 23.512 45.2432 23.512 45.2005 23.512C45.0298 23.512 44.8912 23.512 44.7845 23.512C42.3098 23.512 40.1872 22.648 38.4165 20.92C36.6672 19.192 35.7925 17.1013 35.7925 14.648C35.7925 12.1947 36.6672 10.104 38.4165 8.376C40.1872 6.62667 42.3098 5.752 44.7845 5.752C44.9125 5.752 45.0512 5.76267 45.2005 5.784C45.2645 5.784 45.3072 5.784 45.3285 5.784C45.4352 5.784 45.5418 5.79467 45.6485 5.816C45.6912 5.816 45.7658 5.816 45.8725 5.816C45.9365 5.83733 45.9898 5.848 46.0325 5.848C47.7605 6.08267 49.2965 6.76533 50.6405 7.896C50.6618 7.896 50.6832 7.90667 50.7045 7.928C50.7258 7.94933 50.7472 7.97067 50.7685 7.992C50.8112 8.03467 50.8538 8.07733 50.8965 8.12C50.9818 8.20533 51.0672 8.28 51.1525 8.344L51.1845 8.376V8.408C51.2912 8.49333 51.3765 8.57867 51.4405 8.664C51.4618 8.68533 51.4725 8.696 51.4725 8.696C51.6645 8.90933 51.8458 9.12267 52.0165 9.336C52.1872 9.54933 52.3472 9.784 52.4965 10.04C52.5605 10.1467 52.5392 10.2427 52.4325 10.328L50.0005 11.704L48.6245 12.504C48.4752 12.5893 48.3578 12.568 48.2725 12.44C47.4405 11.2027 46.3738 10.584 45.0725 10.584C43.7925 10.584 42.7365 11.064 41.9045 12.024C41.2218 12.7707 40.8805 13.6453 40.8805 14.648C40.8805 15.6507 41.2218 16.5147 41.9045 17.24C42.7365 18.2213 43.7925 18.712 45.0725 18.712C46.3738 18.712 47.4405 18.0933 48.2725 16.856C48.3578 16.7067 48.4752 16.6747 48.6245 16.76L52.3685 18.936ZM61.847 5.784C63.0843 5.784 64.2577 6.01867 65.367 6.488C66.4763 6.95733 67.4257 7.58667 68.215 8.376C69.0257 9.16533 69.6657 10.1147 70.135 11.224C70.6257 12.312 70.871 13.4533 70.871 14.648C70.871 17.1013 69.9857 19.2027 68.215 20.952C66.4657 22.68 64.343 23.544 61.847 23.544C59.3723 23.544 57.2497 22.68 55.479 20.952C53.7297 19.2027 52.855 17.1013 52.855 14.648C52.855 12.1947 53.7297 10.104 55.479 8.376C57.2497 6.648 59.3723 5.784 61.847 5.784ZM61.847 18.52C62.935 18.52 63.863 18.1467 64.631 17.4C65.399 16.632 65.783 15.7147 65.783 14.648C65.783 13.5813 65.399 12.6747 64.631 11.928C63.863 11.16 62.935 10.776 61.847 10.776C60.7803 10.776 59.863 11.16 59.095 11.928C58.327 12.6747 57.943 13.5813 57.943 14.648C57.943 15.352 58.1137 16.0027 58.455 16.6C58.8177 17.1973 59.2977 17.6667 59.895 18.008C60.4923 18.3493 61.143 18.52 61.847 18.52ZM85.4238 7.544C86.2558 8.35467 86.7998 9.16533 87.0558 9.976C87.3331 10.7867 87.4718 11.8533 87.4718 13.176V22.744C87.4718 22.9147 87.3758 23 87.1838 23H82.1278C81.9571 23 81.8718 22.9147 81.8718 22.744V13.464C81.8718 12.6107 81.7651 11.96 81.5518 11.512C81.4238 11.256 81.2638 11.0533 81.0718 10.904C80.7731 10.6693 80.3571 10.552 79.8238 10.552C78.7784 10.552 78.1278 10.84 77.8718 11.416C77.6798 11.8 77.5838 12.4827 77.5838 13.464V22.744C77.5838 22.9147 77.4984 23 77.3278 23H72.2398C72.0691 23 71.9838 22.9147 71.9838 22.744V6.296C71.9838 6.12533 72.0691 6.04 72.2398 6.04H77.0078C77.1784 6.04 77.2638 6.12533 77.2638 6.296V6.776C77.2638 6.81867 77.2851 6.86133 77.3278 6.904C77.3918 6.92533 77.4451 6.91467 77.4878 6.872C78.1918 6.38133 78.9384 6.06133 79.7278 5.912C80.5171 5.76267 81.1998 5.74133 81.7758 5.848C82.3518 5.93333 82.9171 6.09333 83.4718 6.328C84.0264 6.56267 84.3998 6.75467 84.5918 6.904C84.8051 7.032 84.9544 7.128 85.0398 7.192C85.1891 7.29867 85.3171 7.416 85.4238 7.544ZM107.106 0.695999C107.298 0.695999 107.394 0.781333 107.394 0.952V22.712C107.394 22.904 107.298 23 107.106 23H102.37C102.178 23 102.082 22.904 102.082 22.712V22.456C102.082 22.3067 102.018 22.2747 101.89 22.36C100.503 23.128 99.0095 23.512 97.4095 23.512C94.9348 23.512 92.8122 22.648 91.0415 20.92C89.2922 19.192 88.4175 17.1013 88.4175 14.648C88.4175 12.1947 89.2922 10.104 91.0415 8.376C92.8122 6.62667 94.9348 5.752 97.4095 5.752C99.0095 5.752 100.503 6.14667 101.89 6.936C101.932 6.95733 101.975 6.95733 102.018 6.936C102.06 6.91467 102.082 6.872 102.082 6.808V0.952C102.082 0.781333 102.178 0.695999 102.37 0.695999H107.106ZM98.2415 18.712C99.3508 18.712 100.268 18.3173 100.994 17.528C101.719 16.7387 102.082 15.7787 102.082 14.648C102.082 13.496 101.719 12.536 100.994 11.768C100.268 10.9787 99.3508 10.584 98.2415 10.584C97.0895 10.584 96.1082 10.9787 95.2975 11.768C94.5082 12.5573 94.1135 13.5173 94.1135 14.648C94.1135 15.7573 94.5082 16.7173 95.2975 17.528C96.1082 18.3173 97.0895 18.712 98.2415 18.712ZM129.204 6.04C129.289 6.04 129.353 6.08267 129.396 6.168C129.46 6.232 129.481 6.30667 129.46 6.392L123.572 22.808C123.529 22.936 123.455 23 123.348 23H118.388C118.26 23 118.175 22.936 118.132 22.808L112.244 6.392C112.223 6.30667 112.244 6.232 112.308 6.168C112.351 6.08267 112.415 6.04 112.5 6.04H117.236C117.364 6.04 117.449 6.104 117.492 6.232L120.852 15.64L124.212 6.232C124.255 6.104 124.34 6.04 124.468 6.04H129.204ZM145.956 12.152C146.212 12.9627 146.34 13.7947 146.34 14.648C146.34 15.1387 146.286 15.6613 146.18 16.216C146.158 16.3653 146.073 16.44 145.924 16.44H134.052C133.945 16.44 133.86 16.4933 133.796 16.6C133.753 16.6853 133.753 16.7707 133.796 16.856C134.18 17.4747 134.681 17.9653 135.3 18.328C135.918 18.6907 136.58 18.872 137.284 18.872C138.585 18.872 139.652 18.3493 140.484 17.304C140.548 17.1973 140.633 17.1547 140.74 17.176L145.284 18.008C145.369 18.0293 145.433 18.0827 145.476 18.168C145.518 18.232 145.518 18.3067 145.476 18.392C145.348 18.6907 145.252 18.8933 145.188 19L145.124 19.128C145.038 19.2347 144.953 19.352 144.868 19.48C144.782 19.6507 144.686 19.8 144.58 19.928L144.516 19.992C144.473 20.0347 144.441 20.0773 144.42 20.12L144.388 20.184C144.324 20.248 144.26 20.3227 144.196 20.408L144.132 20.472C144.025 20.5787 143.918 20.6853 143.812 20.792L143.748 20.856C143.684 20.9413 143.62 21.016 143.556 21.08H143.524C143.438 21.1653 143.353 21.24 143.268 21.304L143.204 21.4L143.076 21.304L143.172 21.4C143.044 21.5067 142.926 21.6027 142.82 21.688L142.724 21.784C142.574 21.8693 142.425 21.9653 142.276 22.072L142.244 22.104C142.073 22.2107 141.902 22.3067 141.732 22.392L141.668 22.424C141.625 22.4453 141.593 22.4667 141.572 22.488L141.54 22.52C141.454 22.5413 141.38 22.5733 141.316 22.616L141.284 22.648C141.113 22.712 140.953 22.776 140.804 22.84L140.772 22.872C140.665 22.9147 140.569 22.9467 140.484 22.968L140.388 23C140.26 23.0427 140.142 23.0853 140.036 23.128C139.908 23.1707 139.769 23.2027 139.62 23.224L139.524 23.256C139.268 23.32 139.012 23.3733 138.756 23.416L138.66 23.448C138.382 23.4693 138.116 23.4907 137.86 23.512H137.732C137.582 23.5333 137.444 23.544 137.316 23.544C137.188 23.544 137.049 23.5333 136.9 23.512C136.857 23.512 136.836 23.512 136.836 23.512H136.804C136.697 23.512 136.59 23.5013 136.484 23.48H136.452C136.43 23.48 136.398 23.48 136.356 23.48C136.206 23.4587 136.078 23.4373 135.972 23.416H135.876C135.769 23.3947 135.662 23.3733 135.556 23.352L135.428 23.32C135.342 23.2987 135.246 23.2773 135.14 23.256H135.108C135.086 23.256 135.065 23.2453 135.044 23.224C134.894 23.2027 134.766 23.1707 134.66 23.128C134.553 23.1067 134.425 23.064 134.276 23C134.233 23 134.201 22.9893 134.18 22.968C134.073 22.9253 133.977 22.8933 133.892 22.872L133.86 22.84C133.838 22.84 133.817 22.8293 133.796 22.808C133.668 22.7653 133.54 22.712 133.412 22.648C133.326 22.6053 133.209 22.552 133.06 22.488C133.06 22.4667 133.038 22.4453 132.996 22.424H132.964C132.878 22.3813 132.793 22.3387 132.708 22.296L132.612 22.232C132.505 22.1467 132.398 22.072 132.292 22.008C131.204 21.2827 130.318 20.3653 129.636 19.256C129.572 19.1707 129.518 19.0747 129.476 18.968L129.444 18.936C129.401 18.872 129.348 18.776 129.284 18.648V18.616C129.262 18.5947 129.241 18.5627 129.22 18.52C129.049 18.1787 128.9 17.816 128.772 17.432C128.708 17.2187 128.654 17.0267 128.612 16.856C128.569 16.728 128.537 16.5893 128.516 16.44C128.409 15.992 128.345 15.544 128.324 15.096C128.324 14.9467 128.324 14.7973 128.324 14.648C128.324 14.4987 128.324 14.3493 128.324 14.2C128.366 13.4107 128.516 12.632 128.772 11.864C128.857 11.6293 128.942 11.4053 129.028 11.192C129.07 11.0853 129.124 10.968 129.188 10.84C129.209 10.8187 129.22 10.7867 129.22 10.744L129.284 10.68C129.284 10.6587 129.294 10.6373 129.316 10.616C129.316 10.5733 129.326 10.5413 129.348 10.52L129.444 10.392C129.508 10.264 129.572 10.1467 129.636 10.04C130.318 8.93067 131.204 8.01333 132.292 7.288C132.398 7.224 132.505 7.14933 132.612 7.064L132.708 7.032C132.793 6.968 132.878 6.91467 132.964 6.872H132.996C132.996 6.872 133.006 6.872 133.028 6.872C133.049 6.85067 133.07 6.82933 133.092 6.808C133.22 6.744 133.326 6.69067 133.412 6.648C133.54 6.584 133.668 6.53067 133.796 6.488C133.796 6.488 133.806 6.488 133.828 6.488C133.849 6.46667 133.86 6.456 133.86 6.456L133.892 6.424C133.977 6.40267 134.073 6.37067 134.18 6.328C134.222 6.30667 134.254 6.296 134.276 6.296C134.425 6.25333 134.553 6.21067 134.66 6.168C134.766 6.12533 134.894 6.09333 135.044 6.072C135.044 6.05067 135.054 6.04 135.076 6.04C135.097 6.04 135.108 6.04 135.108 6.04H135.14C135.225 6.01867 135.321 5.99733 135.428 5.976L135.524 5.944C135.652 5.92267 135.79 5.90133 135.94 5.88H135.972C136.078 5.85867 136.206 5.83733 136.356 5.816C136.377 5.816 136.398 5.816 136.42 5.816C136.441 5.816 136.452 5.816 136.452 5.816H136.484C136.59 5.79467 136.697 5.784 136.804 5.784C136.825 5.784 136.846 5.784 136.868 5.784C136.889 5.784 136.9 5.784 136.9 5.784C137.049 5.784 137.188 5.784 137.316 5.784C137.444 5.784 137.582 5.784 137.732 5.784H137.828C138.105 5.80533 138.382 5.83733 138.66 5.88H138.756C139.012 5.92267 139.268 5.976 139.524 6.04L139.62 6.072C139.769 6.09333 139.908 6.12533 140.036 6.168C140.142 6.21067 140.26 6.25333 140.388 6.296C140.409 6.296 140.441 6.30667 140.484 6.328C140.569 6.37067 140.665 6.40267 140.772 6.424L140.804 6.456C140.953 6.52 141.102 6.584 141.252 6.648L141.316 6.68C141.358 6.70133 141.422 6.73333 141.508 6.776L141.54 6.808L141.476 6.936L141.572 6.808C141.614 6.82933 141.646 6.85067 141.668 6.872C141.86 6.97867 142.052 7.08533 142.244 7.192V7.224C142.393 7.30933 142.542 7.40533 142.692 7.512L142.724 7.544C142.745 7.56533 142.777 7.58667 142.82 7.608C142.926 7.69333 143.044 7.78933 143.172 7.896L143.236 7.96C143.342 8.04533 143.438 8.13067 143.524 8.216H143.556C143.62 8.30133 143.684 8.376 143.748 8.44L143.812 8.504C143.918 8.61067 144.025 8.71733 144.132 8.824L144.036 8.92L144.132 8.856L144.196 8.888C144.238 8.952 144.292 9.02667 144.356 9.112L144.42 9.176C144.505 9.26133 144.569 9.34667 144.612 9.432L144.644 9.464C144.686 9.528 144.74 9.60267 144.804 9.688L144.9 9.816C144.942 9.90133 144.985 9.96533 145.028 10.008L145.188 10.296C145.508 10.8933 145.764 11.512 145.956 12.152ZM140.772 12.728C140.857 12.728 140.921 12.696 140.964 12.632C141.028 12.568 141.049 12.4933 141.028 12.408C140.921 11.768 140.537 11.2347 139.876 10.808C139.214 10.3813 138.436 10.168 137.54 10.168C136.985 10.168 136.452 10.264 135.94 10.456C135.428 10.648 135.001 10.9147 134.66 11.256C134.318 11.5973 134.116 11.9813 134.052 12.408C134.03 12.472 134.041 12.5467 134.084 12.632C134.148 12.696 134.222 12.728 134.308 12.728H140.772ZM156.876 13.272C157.238 13.4427 157.58 13.6453 157.9 13.88C158.241 14.0933 158.614 14.392 159.02 14.776C159.446 15.16 159.777 15.6293 160.012 16.184C160.246 16.7387 160.353 17.3253 160.332 17.944C160.289 18.5413 160.14 19.1707 159.884 19.832C159.372 20.8987 158.561 21.7413 157.452 22.36C156.342 22.9573 155.062 23.256 153.612 23.256C153.206 23.256 152.79 23.2347 152.364 23.192C151.041 23.0427 149.9 22.7013 148.94 22.168C147.958 21.4853 147.222 20.5573 146.732 19.384C146.689 19.32 146.689 19.256 146.732 19.192C146.774 19.1067 146.838 19.0533 146.924 19.032L151.564 18.04C151.692 17.9973 151.788 18.0293 151.852 18.136C152.15 18.584 152.545 18.84 153.036 18.904C153.59 18.968 154.006 18.872 154.284 18.616C154.476 18.424 154.561 18.2 154.54 17.944C154.497 17.6453 154.337 17.3893 154.06 17.176C153.782 16.9627 153.196 16.6427 152.3 16.216H152.268C151.734 15.96 151.308 15.7467 150.988 15.576C150.625 15.4267 150.294 15.2667 149.996 15.096H149.964C149.9 15.0533 149.857 15.0213 149.836 15C149.302 14.7013 148.833 14.3813 148.428 14.04C148.044 13.6773 147.734 13.304 147.5 12.92C147.265 12.5147 147.105 12.0987 147.02 11.672C146.913 11.1173 146.945 10.5413 147.116 9.944C147.286 9.34667 147.457 8.92 147.628 8.664C147.798 8.38667 147.958 8.14133 148.108 7.928C148.47 7.52267 148.886 7.17067 149.356 6.872C150.828 5.95467 152.534 5.60267 154.476 5.816C155.628 5.96533 156.652 6.27467 157.548 6.744C157.974 6.95733 158.369 7.21333 158.732 7.512C159.372 8.10933 159.777 8.824 159.948 9.656C159.99 9.82667 159.926 9.93333 159.756 9.976L155.18 10.872C155.03 10.9147 154.924 10.8613 154.86 10.712C154.689 10.3067 154.358 10.072 153.868 10.008C153.441 9.96533 153.1 10.072 152.844 10.328C152.673 10.5413 152.609 10.7547 152.652 10.968C152.801 11.4373 153.505 11.928 154.764 12.44C155.169 12.6107 155.489 12.7387 155.724 12.824C156.129 12.9733 156.513 13.1227 156.876 13.272ZM170.995 18.584C171.081 18.584 171.145 18.616 171.187 18.68C171.251 18.744 171.283 18.8187 171.283 18.904L170.675 22.904C170.654 23.0533 170.569 23.128 170.419 23.128C169.033 23.2133 168.158 23.256 167.795 23.256C167.774 23.256 167.753 23.256 167.731 23.256C166.281 23.192 165.182 22.7973 164.435 22.072C163.689 21.3467 163.315 20.3227 163.315 19V10.84C163.315 10.6693 163.219 10.584 163.027 10.584H161.267C161.097 10.584 161.011 10.488 161.011 10.296V6.296C161.011 6.104 161.097 6.008 161.267 6.008H163.027C163.219 6.008 163.315 5.92267 163.315 5.752V1.112C163.315 0.919999 163.401 0.823999 163.571 0.823999H168.339C168.51 0.823999 168.595 0.919999 168.595 1.112V5.752C168.595 5.92267 168.681 6.008 168.851 6.008H170.611C170.803 6.008 170.899 6.104 170.899 6.296V10.296C170.899 10.488 170.803 10.584 170.611 10.584H168.851C168.681 10.584 168.595 10.6693 168.595 10.84C168.595 14.5733 168.595 16.4507 168.595 16.472V16.568C168.574 17.3787 168.691 17.9333 168.947 18.232C169.203 18.4667 169.587 18.584 170.099 18.584H170.995ZM177.102 6.04C177.272 6.04 177.358 6.12533 177.358 6.296V22.744C177.358 22.9147 177.272 23 177.102 23H172.334C172.163 23 172.078 22.9147 172.078 22.744V6.296C172.078 6.12533 172.163 6.04 172.334 6.04H177.102ZM177.102 0.695999C177.272 0.695999 177.358 0.781333 177.358 0.952V4.44C177.358 4.61067 177.272 4.696 177.102 4.696H172.334C172.163 4.696 172.078 4.61067 172.078 4.44V0.952C172.078 0.781333 172.163 0.695999 172.334 0.695999H177.102ZM192.424 7.544C193.256 8.35467 193.8 9.16533 194.056 9.976C194.333 10.7867 194.472 11.8533 194.472 13.176V22.744C194.472 22.9147 194.376 23 194.184 23H189.128C188.957 23 188.872 22.9147 188.872 22.744V13.464C188.872 12.6107 188.765 11.96 188.552 11.512C188.424 11.256 188.264 11.0533 188.072 10.904C187.773 10.6693 187.357 10.552 186.824 10.552C185.778 10.552 185.128 10.84 184.872 11.416C184.68 11.8 184.584 12.4827 184.584 13.464V22.744C184.584 22.9147 184.498 23 184.328 23H179.24C179.069 23 178.984 22.9147 178.984 22.744V6.296C178.984 6.12533 179.069 6.04 179.24 6.04H184.008C184.178 6.04 184.264 6.12533 184.264 6.296V6.776C184.264 6.81867 184.285 6.86133 184.328 6.904C184.392 6.92533 184.445 6.91467 184.488 6.872C185.192 6.38133 185.938 6.06133 186.728 5.912C187.517 5.76267 188.2 5.74133 188.776 5.848C189.352 5.93333 189.917 6.09333 190.472 6.328C191.026 6.56267 191.4 6.75467 191.592 6.904C191.805 7.032 191.954 7.128 192.04 7.192C192.189 7.29867 192.317 7.416 192.424 7.544ZM214.042 6.072C214.212 6.072 214.298 6.168 214.298 6.36V19.704V21.4C214.298 24.3013 213.54 26.5307 212.026 28.088C210.511 29.6453 208.324 30.424 205.466 30.424H205.306C205.242 30.424 205.178 30.424 205.114 30.424C202.255 30.424 199.556 29.272 197.018 26.968C196.847 26.8187 196.847 26.68 197.018 26.552L200.506 23.864C200.634 23.7573 200.751 23.768 200.858 23.896C202.287 25.3467 203.823 26.0187 205.466 25.912C206.959 25.8053 208.015 25.3147 208.634 24.44C209.039 23.864 209.167 23.2027 209.018 22.456C208.996 22.328 208.932 22.296 208.826 22.36C207.46 23.128 205.978 23.512 204.378 23.512C201.903 23.512 199.791 22.648 198.042 20.92C196.292 19.192 195.418 17.112 195.418 14.68C195.418 12.2267 196.292 10.136 198.042 8.408C199.791 6.68 201.903 5.816 204.378 5.816C205.978 5.816 207.471 6.2 208.858 6.968C208.9 7.01067 208.943 7.02133 208.986 7C209.028 6.95733 209.05 6.91467 209.05 6.872V6.36C209.05 6.168 209.135 6.072 209.306 6.072H214.042ZM205.21 18.712C206.319 18.712 207.236 18.328 207.962 17.56C208.687 16.7707 209.05 15.8107 209.05 14.68C209.05 14.1893 208.964 13.7093 208.794 13.24C208.495 12.4293 208.026 11.7893 207.386 11.32C206.767 10.8507 206.042 10.616 205.21 10.616C204.079 10.616 203.108 11.0107 202.298 11.8C201.487 12.5893 201.082 13.5493 201.082 14.68C201.082 15.768 201.466 16.7067 202.234 17.496C203.002 18.2853 203.951 18.6907 205.082 18.712H205.114C205.156 18.712 205.188 18.712 205.21 18.712Z" fill="url(#paint0_linear_5685_11989)"/>
<defs>
<linearGradient id="paint0_linear_5685_11989" x1="248.451" y1="-43.6856" x2="-27.6778" y2="1.15536" gradientUnits="userSpaceOnUse">
<stop stop-color="#F3FC1F"/>
<stop offset="0.46875" stop-color="#F3FC1F"/>
<stop offset="1" stop-color="#00FF80"/>
</linearGradient>
</defs>
</svg>
