<svg width="188" height="52" viewBox="0 0 188 52" fill="none" xmlns="http://www.w3.org/2000/svg">
<path d="M12.3659 14.74L15.3959 21.67C15.4359 21.75 15.4259 21.83 15.3659 21.91C15.3259 21.99 15.2559 22.03 15.1559 22.03H9.9059C9.7859 22.03 9.7059 21.98 9.6659 21.88L6.9359 15.58C6.8759 15.48 6.7959 15.43 6.6959 15.43H5.8559C5.6759 15.43 5.5859 15.52 5.5859 15.7V21.7C5.5859 21.88 5.5059 21.97 5.3459 21.97H0.485898C0.325898 21.97 0.245898 21.88 0.245898 21.7V1.21C0.245898 1.05 0.325898 0.969999 0.485898 0.969999H6.9959C8.7359 0.969999 10.0659 1.1 10.9859 1.36C11.9059 1.6 12.6759 1.98 13.2959 2.5C13.8159 2.94 14.2559 3.45 14.6159 4.03C14.9759 4.61 15.2459 5.25 15.4259 5.95C15.6259 6.63 15.7259 7.34 15.7259 8.08C15.7259 9.16 15.5259 10.21 15.1259 11.23C14.7259 12.25 14.2059 13.04 13.5659 13.6C13.1859 13.94 12.8159 14.21 12.4559 14.41C12.3359 14.49 12.3059 14.6 12.3659 14.74ZM9.3959 10.3C10.1959 9.94 10.5959 9.23 10.5959 8.17C10.5959 7.15 10.1859 6.46 9.3659 6.1C8.8859 5.9 8.1759 5.8 7.2359 5.8H5.8559C5.6759 5.8 5.5859 5.88 5.5859 6.04V10.33C5.5859 10.51 5.6759 10.6 5.8559 10.6H7.4159C8.2959 10.6 8.9559 10.5 9.3959 10.3ZM31.981 11.83C32.221 12.59 32.341 13.37 32.341 14.17C32.341 14.63 32.291 15.12 32.191 15.64C32.171 15.78 32.091 15.85 31.951 15.85H20.821C20.721 15.85 20.641 15.9 20.581 16C20.541 16.08 20.541 16.16 20.581 16.24C20.941 16.82 21.411 17.28 21.991 17.62C22.571 17.96 23.191 18.13 23.851 18.13C25.071 18.13 26.071 17.64 26.851 16.66C26.911 16.56 26.991 16.52 27.091 16.54L31.351 17.32C31.431 17.34 31.491 17.39 31.531 17.47C31.571 17.53 31.571 17.6 31.531 17.68C31.411 17.96 31.321 18.15 31.261 18.25L31.201 18.37C31.121 18.47 31.041 18.58 30.961 18.7C30.881 18.86 30.791 19 30.691 19.12L30.631 19.18C30.591 19.22 30.561 19.26 30.541 19.3L30.511 19.36C30.451 19.42 30.391 19.49 30.331 19.57L30.271 19.63C30.171 19.73 30.071 19.83 29.971 19.93L29.911 19.99C29.851 20.07 29.791 20.14 29.731 20.2H29.701C29.621 20.28 29.541 20.35 29.461 20.41L29.401 20.5L29.281 20.41L29.371 20.5C29.251 20.6 29.141 20.69 29.041 20.77L28.951 20.86C28.811 20.94 28.671 21.03 28.531 21.13L28.501 21.16C28.341 21.26 28.181 21.35 28.021 21.43L27.961 21.46C27.921 21.48 27.891 21.5 27.871 21.52L27.841 21.55C27.761 21.57 27.691 21.6 27.631 21.64L27.601 21.67C27.441 21.73 27.291 21.79 27.151 21.85L27.121 21.88C27.021 21.92 26.931 21.95 26.851 21.97L26.761 22C26.641 22.04 26.531 22.08 26.431 22.12C26.311 22.16 26.181 22.19 26.041 22.21L25.951 22.24C25.711 22.3 25.471 22.35 25.231 22.39L25.141 22.42C24.881 22.44 24.631 22.46 24.391 22.48H24.271C24.131 22.5 24.001 22.51 23.881 22.51C23.761 22.51 23.631 22.5 23.491 22.48C23.451 22.48 23.431 22.48 23.431 22.48H23.401C23.301 22.48 23.201 22.47 23.101 22.45H23.071C23.051 22.45 23.021 22.45 22.981 22.45C22.841 22.43 22.721 22.41 22.621 22.39H22.531C22.431 22.37 22.331 22.35 22.231 22.33L22.111 22.3C22.031 22.28 21.941 22.26 21.841 22.24H21.811C21.791 22.24 21.771 22.23 21.751 22.21C21.611 22.19 21.491 22.16 21.391 22.12C21.291 22.1 21.171 22.06 21.031 22C20.991 22 20.961 21.99 20.941 21.97C20.841 21.93 20.751 21.9 20.671 21.88L20.641 21.85C20.621 21.85 20.601 21.84 20.581 21.82C20.461 21.78 20.341 21.73 20.221 21.67C20.141 21.63 20.031 21.58 19.891 21.52C19.891 21.5 19.871 21.48 19.831 21.46H19.801C19.721 21.42 19.641 21.38 19.561 21.34L19.471 21.28C19.371 21.2 19.271 21.13 19.171 21.07C18.151 20.39 17.321 19.53 16.681 18.49C16.621 18.41 16.571 18.32 16.531 18.22L16.501 18.19C16.461 18.13 16.411 18.04 16.351 17.92V17.89C16.331 17.87 16.311 17.84 16.291 17.8C16.131 17.48 15.991 17.14 15.871 16.78C15.811 16.58 15.761 16.4 15.721 16.24C15.681 16.12 15.651 15.99 15.631 15.85C15.531 15.43 15.471 15.01 15.451 14.59C15.451 14.45 15.451 14.31 15.451 14.17C15.451 14.03 15.451 13.89 15.451 13.75C15.491 13.01 15.631 12.28 15.871 11.56C15.951 11.34 16.031 11.13 16.111 10.93C16.151 10.83 16.201 10.72 16.261 10.6C16.281 10.58 16.291 10.55 16.291 10.51L16.351 10.45C16.351 10.43 16.361 10.41 16.381 10.39C16.381 10.35 16.391 10.32 16.411 10.3L16.501 10.18C16.561 10.06 16.621 9.95 16.681 9.85C17.321 8.81 18.151 7.95 19.171 7.27C19.271 7.21 19.371 7.14 19.471 7.06L19.561 7.03C19.641 6.97 19.721 6.92 19.801 6.88H19.831C19.831 6.88 19.841 6.88 19.861 6.88C19.881 6.86 19.901 6.84 19.921 6.82C20.041 6.76 20.141 6.71 20.221 6.67C20.341 6.61 20.461 6.56 20.581 6.52C20.581 6.52 20.591 6.52 20.611 6.52C20.631 6.5 20.641 6.49 20.641 6.49L20.671 6.46C20.751 6.44 20.841 6.41 20.941 6.37C20.981 6.35 21.011 6.34 21.031 6.34C21.171 6.3 21.291 6.26 21.391 6.22C21.491 6.18 21.611 6.15 21.751 6.13C21.751 6.11 21.761 6.1 21.781 6.1C21.801 6.1 21.811 6.1 21.811 6.1H21.841C21.921 6.08 22.011 6.06 22.111 6.04L22.201 6.01C22.321 5.99 22.451 5.97 22.591 5.95H22.621C22.721 5.93 22.841 5.91 22.981 5.89C23.001 5.89 23.021 5.89 23.041 5.89C23.061 5.89 23.071 5.89 23.071 5.89H23.101C23.201 5.87 23.301 5.86 23.401 5.86C23.421 5.86 23.441 5.86 23.461 5.86C23.481 5.86 23.491 5.86 23.491 5.86C23.631 5.86 23.761 5.86 23.881 5.86C24.001 5.86 24.131 5.86 24.271 5.86H24.361C24.621 5.88 24.881 5.91 25.141 5.95H25.231C25.471 5.99 25.711 6.04 25.951 6.1L26.041 6.13C26.181 6.15 26.311 6.18 26.431 6.22C26.531 6.26 26.641 6.3 26.761 6.34C26.781 6.34 26.811 6.35 26.851 6.37C26.931 6.41 27.021 6.44 27.121 6.46L27.151 6.49C27.291 6.55 27.431 6.61 27.571 6.67L27.631 6.7C27.671 6.72 27.731 6.75 27.811 6.79L27.841 6.82L27.781 6.94L27.871 6.82C27.911 6.84 27.941 6.86 27.961 6.88C28.141 6.98 28.321 7.08 28.501 7.18V7.21C28.641 7.29 28.781 7.38 28.921 7.48L28.951 7.51C28.971 7.53 29.001 7.55 29.041 7.57C29.141 7.65 29.251 7.74 29.371 7.84L29.431 7.9C29.531 7.98 29.621 8.06 29.701 8.14H29.731C29.791 8.22 29.851 8.29 29.911 8.35L29.971 8.41C30.071 8.51 30.171 8.61 30.271 8.71L30.181 8.8L30.271 8.74L30.331 8.77C30.371 8.83 30.421 8.9 30.481 8.98L30.541 9.04C30.621 9.12 30.681 9.2 30.721 9.28L30.751 9.31C30.791 9.37 30.841 9.44 30.901 9.52L30.991 9.64C31.031 9.72 31.071 9.78 31.111 9.82L31.261 10.09C31.561 10.65 31.801 11.23 31.981 11.83ZM27.121 12.37C27.201 12.37 27.261 12.34 27.301 12.28C27.361 12.22 27.381 12.15 27.361 12.07C27.261 11.47 26.901 10.97 26.281 10.57C25.661 10.17 24.931 9.97 24.091 9.97C23.571 9.97 23.071 10.06 22.591 10.24C22.111 10.42 21.711 10.67 21.391 10.99C21.071 11.31 20.881 11.67 20.821 12.07C20.801 12.13 20.811 12.2 20.851 12.28C20.911 12.34 20.981 12.37 21.061 12.37H27.121ZM38.3342 1.09C38.5142 1.09 38.6042 1.17 38.6042 1.33V21.76C38.6042 21.92 38.5142 22 38.3342 22H33.6242C33.4642 22 33.3842 21.92 33.3842 21.76V1.33C33.3842 1.17 33.4642 1.09 33.6242 1.09H38.3342ZM56.1802 11.83C56.4202 12.59 56.5402 13.37 56.5402 14.17C56.5402 14.63 56.4902 15.12 56.3902 15.64C56.3702 15.78 56.2902 15.85 56.1502 15.85H45.0202C44.9202 15.85 44.8402 15.9 44.7802 16C44.7402 16.08 44.7402 16.16 44.7802 16.24C45.1402 16.82 45.6102 17.28 46.1902 17.62C46.7702 17.96 47.3902 18.13 48.0502 18.13C49.2702 18.13 50.2702 17.64 51.0502 16.66C51.1102 16.56 51.1902 16.52 51.2902 16.54L55.5502 17.32C55.6302 17.34 55.6902 17.39 55.7302 17.47C55.7702 17.53 55.7702 17.6 55.7302 17.68C55.6102 17.96 55.5202 18.15 55.4602 18.25L55.4002 18.37C55.3202 18.47 55.2402 18.58 55.1602 18.7C55.0802 18.86 54.9902 19 54.8902 19.12L54.8302 19.18C54.7902 19.22 54.7602 19.26 54.7402 19.3L54.7102 19.36C54.6502 19.42 54.5902 19.49 54.5302 19.57L54.4702 19.63C54.3702 19.73 54.2702 19.83 54.1702 19.93L54.1102 19.99C54.0502 20.07 53.9902 20.14 53.9302 20.2H53.9002C53.8202 20.28 53.7402 20.35 53.6602 20.41L53.6002 20.5L53.4802 20.41L53.5702 20.5C53.4502 20.6 53.3402 20.69 53.2402 20.77L53.1502 20.86C53.0102 20.94 52.8702 21.03 52.7302 21.13L52.7002 21.16C52.5402 21.26 52.3802 21.35 52.2202 21.43L52.1602 21.46C52.1202 21.48 52.0902 21.5 52.0702 21.52L52.0402 21.55C51.9602 21.57 51.8902 21.6 51.8302 21.64L51.8002 21.67C51.6402 21.73 51.4902 21.79 51.3502 21.85L51.3202 21.88C51.2202 21.92 51.1302 21.95 51.0502 21.97L50.9602 22C50.8402 22.04 50.7302 22.08 50.6302 22.12C50.5102 22.16 50.3802 22.19 50.2402 22.21L50.1502 22.24C49.9102 22.3 49.6702 22.35 49.4302 22.39L49.3402 22.42C49.0802 22.44 48.8302 22.46 48.5902 22.48H48.4702C48.3302 22.5 48.2002 22.51 48.0802 22.51C47.9602 22.51 47.8302 22.5 47.6902 22.48C47.6502 22.48 47.6302 22.48 47.6302 22.48H47.6002C47.5002 22.48 47.4002 22.47 47.3002 22.45H47.2702C47.2502 22.45 47.2202 22.45 47.1802 22.45C47.0402 22.43 46.9202 22.41 46.8202 22.39H46.7302C46.6302 22.37 46.5302 22.35 46.4302 22.33L46.3102 22.3C46.2302 22.28 46.1402 22.26 46.0402 22.24H46.0102C45.9902 22.24 45.9702 22.23 45.9502 22.21C45.8102 22.19 45.6902 22.16 45.5902 22.12C45.4902 22.1 45.3702 22.06 45.2302 22C45.1902 22 45.1602 21.99 45.1402 21.97C45.0402 21.93 44.9502 21.9 44.8702 21.88L44.8402 21.85C44.8202 21.85 44.8002 21.84 44.7802 21.82C44.6602 21.78 44.5402 21.73 44.4202 21.67C44.3402 21.63 44.2302 21.58 44.0902 21.52C44.0902 21.5 44.0702 21.48 44.0302 21.46H44.0002C43.9202 21.42 43.8402 21.38 43.7602 21.34L43.6702 21.28C43.5702 21.2 43.4702 21.13 43.3702 21.07C42.3502 20.39 41.5202 19.53 40.8802 18.49C40.8202 18.41 40.7702 18.32 40.7302 18.22L40.7002 18.19C40.6602 18.13 40.6102 18.04 40.5502 17.92V17.89C40.5302 17.87 40.5102 17.84 40.4902 17.8C40.3302 17.48 40.1902 17.14 40.0702 16.78C40.0102 16.58 39.9602 16.4 39.9202 16.24C39.8802 16.12 39.8502 15.99 39.8302 15.85C39.7302 15.43 39.6702 15.01 39.6502 14.59C39.6502 14.45 39.6502 14.31 39.6502 14.17C39.6502 14.03 39.6502 13.89 39.6502 13.75C39.6902 13.01 39.8302 12.28 40.0702 11.56C40.1502 11.34 40.2302 11.13 40.3102 10.93C40.3502 10.83 40.4002 10.72 40.4602 10.6C40.4802 10.58 40.4902 10.55 40.4902 10.51L40.5502 10.45C40.5502 10.43 40.5602 10.41 40.5802 10.39C40.5802 10.35 40.5902 10.32 40.6102 10.3L40.7002 10.18C40.7602 10.06 40.8202 9.95 40.8802 9.85C41.5202 8.81 42.3502 7.95 43.3702 7.27C43.4702 7.21 43.5702 7.14 43.6702 7.06L43.7602 7.03C43.8402 6.97 43.9202 6.92 44.0002 6.88H44.0302C44.0302 6.88 44.0402 6.88 44.0602 6.88C44.0802 6.86 44.1002 6.84 44.1202 6.82C44.2402 6.76 44.3402 6.71 44.4202 6.67C44.5402 6.61 44.6602 6.56 44.7802 6.52C44.7802 6.52 44.7902 6.52 44.8102 6.52C44.8302 6.5 44.8402 6.49 44.8402 6.49L44.8702 6.46C44.9502 6.44 45.0402 6.41 45.1402 6.37C45.1802 6.35 45.2102 6.34 45.2302 6.34C45.3702 6.3 45.4902 6.26 45.5902 6.22C45.6902 6.18 45.8102 6.15 45.9502 6.13C45.9502 6.11 45.9602 6.1 45.9802 6.1C46.0002 6.1 46.0102 6.1 46.0102 6.1H46.0402C46.1202 6.08 46.2102 6.06 46.3102 6.04L46.4002 6.01C46.5202 5.99 46.6502 5.97 46.7902 5.95H46.8202C46.9202 5.93 47.0402 5.91 47.1802 5.89C47.2002 5.89 47.2202 5.89 47.2402 5.89C47.2602 5.89 47.2702 5.89 47.2702 5.89H47.3002C47.4002 5.87 47.5002 5.86 47.6002 5.86C47.6202 5.86 47.6402 5.86 47.6602 5.86C47.6802 5.86 47.6902 5.86 47.6902 5.86C47.8302 5.86 47.9602 5.86 48.0802 5.86C48.2002 5.86 48.3302 5.86 48.4702 5.86H48.5602C48.8202 5.88 49.0802 5.91 49.3402 5.95H49.4302C49.6702 5.99 49.9102 6.04 50.1502 6.1L50.2402 6.13C50.3802 6.15 50.5102 6.18 50.6302 6.22C50.7302 6.26 50.8402 6.3 50.9602 6.34C50.9802 6.34 51.0102 6.35 51.0502 6.37C51.1302 6.41 51.2202 6.44 51.3202 6.46L51.3502 6.49C51.4902 6.55 51.6302 6.61 51.7702 6.67L51.8302 6.7C51.8702 6.72 51.9302 6.75 52.0102 6.79L52.0402 6.82L51.9802 6.94L52.0702 6.82C52.1102 6.84 52.1402 6.86 52.1602 6.88C52.3402 6.98 52.5202 7.08 52.7002 7.18V7.21C52.8402 7.29 52.9802 7.38 53.1202 7.48L53.1502 7.51C53.1702 7.53 53.2002 7.55 53.2402 7.57C53.3402 7.65 53.4502 7.74 53.5702 7.84L53.6302 7.9C53.7302 7.98 53.8202 8.06 53.9002 8.14H53.9302C53.9902 8.22 54.0502 8.29 54.1102 8.35L54.1702 8.41C54.2702 8.51 54.3702 8.61 54.4702 8.71L54.3802 8.8L54.4702 8.74L54.5302 8.77C54.5702 8.83 54.6202 8.9 54.6802 8.98L54.7402 9.04C54.8202 9.12 54.8802 9.2 54.9202 9.28L54.9502 9.31C54.9902 9.37 55.0402 9.44 55.1002 9.52L55.1902 9.64C55.2302 9.72 55.2702 9.78 55.3102 9.82L55.4602 10.09C55.7602 10.65 56.0002 11.23 56.1802 11.83ZM51.3202 12.37C51.4002 12.37 51.4602 12.34 51.5002 12.28C51.5602 12.22 51.5802 12.15 51.5602 12.07C51.4602 11.47 51.1002 10.97 50.4802 10.57C49.8602 10.17 49.1302 9.97 48.2902 9.97C47.7702 9.97 47.2702 10.06 46.7902 10.24C46.3102 10.42 45.9102 10.67 45.5902 10.99C45.2702 11.31 45.0802 11.67 45.0202 12.07C45.0002 12.13 45.0102 12.2 45.0502 12.28C45.1102 12.34 45.1802 12.37 45.2602 12.37H51.3202ZM74.6604 6.1C74.8404 6.1 74.9304 6.18 74.9304 6.34V21.73C74.9304 21.91 74.8404 22 74.6604 22H70.2204C70.0404 22 69.9504 21.91 69.9504 21.73V21.49C69.9504 21.45 69.9304 21.42 69.8904 21.4C69.8504 21.38 69.8104 21.38 69.7704 21.4C68.4704 22.12 67.0704 22.48 65.5704 22.48C63.2504 22.48 61.2604 21.67 59.6004 20.05C57.9604 18.43 57.1404 16.47 57.1404 14.17C57.1404 11.87 57.9604 9.91 59.6004 8.29C61.2604 6.65 63.2504 5.83 65.5704 5.83C67.0704 5.83 68.4704 6.2 69.7704 6.94C69.8104 6.96 69.8504 6.96 69.8904 6.94C69.9304 6.92 69.9504 6.88 69.9504 6.82V6.34C69.9504 6.18 70.0404 6.1 70.2204 6.1H74.6604ZM66.3504 17.98C67.3904 17.98 68.2504 17.61 68.9304 16.87C69.6104 16.13 69.9504 15.23 69.9504 14.17C69.9504 13.09 69.6104 12.19 68.9304 11.47C68.2504 10.73 67.3904 10.36 66.3504 10.36C65.2704 10.36 64.3504 10.73 63.5904 11.47C62.8504 12.21 62.4804 13.11 62.4804 14.17C62.4804 15.21 62.8504 16.11 63.5904 16.87C64.3504 17.61 65.2704 17.98 66.3504 17.98ZM85.4018 12.88C85.7418 13.04 86.0618 13.23 86.3618 13.45C86.6818 13.65 87.0318 13.93 87.4118 14.29C87.8118 14.65 88.1218 15.09 88.3418 15.61C88.5618 16.13 88.6618 16.68 88.6418 17.26C88.6018 17.82 88.4618 18.41 88.2218 19.03C87.7418 20.03 86.9818 20.82 85.9418 21.4C84.9018 21.96 83.7018 22.24 82.3418 22.24C81.9618 22.24 81.5718 22.22 81.1718 22.18C79.9318 22.04 78.8618 21.72 77.9618 21.22C77.0418 20.58 76.3518 19.71 75.8918 18.61C75.8518 18.55 75.8518 18.49 75.8918 18.43C75.9318 18.35 75.9918 18.3 76.0718 18.28L80.4218 17.35C80.5418 17.31 80.6318 17.34 80.6918 17.44C80.9718 17.86 81.3418 18.1 81.8018 18.16C82.3218 18.22 82.7118 18.13 82.9718 17.89C83.1518 17.71 83.2318 17.5 83.2118 17.26C83.1718 16.98 83.0218 16.74 82.7618 16.54C82.5018 16.34 81.9518 16.04 81.1118 15.64H81.0818C80.5818 15.4 80.1818 15.2 79.8818 15.04C79.5418 14.9 79.2318 14.75 78.9518 14.59H78.9218C78.8618 14.55 78.8218 14.52 78.8018 14.5C78.3018 14.22 77.8618 13.92 77.4818 13.6C77.1218 13.26 76.8318 12.91 76.6118 12.55C76.3918 12.17 76.2418 11.78 76.1618 11.38C76.0618 10.86 76.0918 10.32 76.2518 9.76C76.4118 9.2 76.5718 8.8 76.7318 8.56C76.8918 8.3 77.0418 8.07 77.1818 7.87C77.5218 7.49 77.9118 7.16 78.3518 6.88C79.7318 6.02 81.3318 5.69 83.1518 5.89C84.2318 6.03 85.1918 6.32 86.0318 6.76C86.4318 6.96 86.8018 7.2 87.1418 7.48C87.7418 8.04 88.1218 8.71 88.2818 9.49C88.3218 9.65 88.2618 9.75 88.1018 9.79L83.8118 10.63C83.6718 10.67 83.5718 10.62 83.5118 10.48C83.3518 10.1 83.0418 9.88 82.5818 9.82C82.1818 9.78 81.8618 9.88 81.6218 10.12C81.4618 10.32 81.4018 10.52 81.4418 10.72C81.5818 11.16 82.2418 11.62 83.4218 12.1C83.8018 12.26 84.1018 12.38 84.3218 12.46C84.7018 12.6 85.0618 12.74 85.4018 12.88ZM105.809 11.83C106.049 12.59 106.169 13.37 106.169 14.17C106.169 14.63 106.119 15.12 106.019 15.64C105.999 15.78 105.919 15.85 105.779 15.85H94.6491C94.5491 15.85 94.4691 15.9 94.4091 16C94.3691 16.08 94.3691 16.16 94.4091 16.24C94.7691 16.82 95.2391 17.28 95.8191 17.62C96.3991 17.96 97.0191 18.13 97.6791 18.13C98.8991 18.13 99.8991 17.64 100.679 16.66C100.739 16.56 100.819 16.52 100.919 16.54L105.179 17.32C105.259 17.34 105.319 17.39 105.359 17.47C105.399 17.53 105.399 17.6 105.359 17.68C105.239 17.96 105.149 18.15 105.089 18.25L105.029 18.37C104.949 18.47 104.869 18.58 104.789 18.7C104.709 18.86 104.619 19 104.519 19.12L104.459 19.18C104.419 19.22 104.389 19.26 104.369 19.3L104.339 19.36C104.279 19.42 104.219 19.49 104.159 19.57L104.099 19.63C103.999 19.73 103.899 19.83 103.799 19.93L103.739 19.99C103.679 20.07 103.619 20.14 103.559 20.2H103.529C103.449 20.28 103.369 20.35 103.289 20.41L103.229 20.5L103.109 20.41L103.199 20.5C103.079 20.6 102.969 20.69 102.869 20.77L102.779 20.86C102.639 20.94 102.499 21.03 102.359 21.13L102.329 21.16C102.169 21.26 102.009 21.35 101.849 21.43L101.789 21.46C101.749 21.48 101.719 21.5 101.699 21.52L101.669 21.55C101.589 21.57 101.519 21.6 101.459 21.64L101.429 21.67C101.269 21.73 101.119 21.79 100.979 21.85L100.949 21.88C100.849 21.92 100.759 21.95 100.679 21.97L100.589 22C100.469 22.04 100.359 22.08 100.259 22.12C100.139 22.16 100.009 22.19 99.8691 22.21L99.7791 22.24C99.5391 22.3 99.2991 22.35 99.0591 22.39L98.9691 22.42C98.7091 22.44 98.4591 22.46 98.2191 22.48H98.0991C97.9591 22.5 97.8291 22.51 97.7091 22.51C97.5891 22.51 97.4591 22.5 97.3191 22.48C97.2791 22.48 97.2591 22.48 97.2591 22.48H97.2291C97.1291 22.48 97.0291 22.47 96.9291 22.45H96.8991C96.8791 22.45 96.8491 22.45 96.8091 22.45C96.6691 22.43 96.5491 22.41 96.4491 22.39H96.3591C96.2591 22.37 96.1591 22.35 96.0591 22.33L95.9391 22.3C95.8591 22.28 95.7691 22.26 95.6691 22.24H95.6391C95.6191 22.24 95.5991 22.23 95.5791 22.21C95.4391 22.19 95.3191 22.16 95.2191 22.12C95.1191 22.1 94.9991 22.06 94.8591 22C94.8191 22 94.7891 21.99 94.7691 21.97C94.6691 21.93 94.5791 21.9 94.4991 21.88L94.4691 21.85C94.4491 21.85 94.4291 21.84 94.4091 21.82C94.2891 21.78 94.1691 21.73 94.0491 21.67C93.9691 21.63 93.8591 21.58 93.7191 21.52C93.7191 21.5 93.6991 21.48 93.6591 21.46H93.6291C93.5491 21.42 93.4691 21.38 93.3891 21.34L93.2991 21.28C93.1991 21.2 93.0991 21.13 92.9991 21.07C91.9791 20.39 91.1491 19.53 90.5091 18.49C90.4491 18.41 90.3991 18.32 90.3591 18.22L90.3291 18.19C90.2891 18.13 90.2391 18.04 90.1791 17.92V17.89C90.1591 17.87 90.1391 17.84 90.1191 17.8C89.9591 17.48 89.8191 17.14 89.6991 16.78C89.6391 16.58 89.5891 16.4 89.5491 16.24C89.5091 16.12 89.4791 15.99 89.4591 15.85C89.3591 15.43 89.2991 15.01 89.2791 14.59C89.2791 14.45 89.2791 14.31 89.2791 14.17C89.2791 14.03 89.2791 13.89 89.2791 13.75C89.3191 13.01 89.4591 12.28 89.6991 11.56C89.7791 11.34 89.8591 11.13 89.9391 10.93C89.9791 10.83 90.0291 10.72 90.0891 10.6C90.1091 10.58 90.1191 10.55 90.1191 10.51L90.1791 10.45C90.1791 10.43 90.1891 10.41 90.2091 10.39C90.2091 10.35 90.2191 10.32 90.2391 10.3L90.3291 10.18C90.3891 10.06 90.4491 9.95 90.5091 9.85C91.1491 8.81 91.9791 7.95 92.9991 7.27C93.0991 7.21 93.1991 7.14 93.2991 7.06L93.3891 7.03C93.4691 6.97 93.5491 6.92 93.6291 6.88H93.6591C93.6591 6.88 93.6691 6.88 93.6891 6.88C93.7091 6.86 93.7291 6.84 93.7491 6.82C93.8691 6.76 93.9691 6.71 94.0491 6.67C94.1691 6.61 94.2891 6.56 94.4091 6.52C94.4091 6.52 94.4191 6.52 94.4391 6.52C94.4591 6.5 94.4691 6.49 94.4691 6.49L94.4991 6.46C94.5791 6.44 94.6691 6.41 94.7691 6.37C94.8091 6.35 94.8391 6.34 94.8591 6.34C94.9991 6.3 95.1191 6.26 95.2191 6.22C95.3191 6.18 95.4391 6.15 95.5791 6.13C95.5791 6.11 95.5891 6.1 95.6091 6.1C95.6291 6.1 95.6391 6.1 95.6391 6.1H95.6691C95.7491 6.08 95.8391 6.06 95.9391 6.04L96.0291 6.01C96.1491 5.99 96.2791 5.97 96.4191 5.95H96.4491C96.5491 5.93 96.6691 5.91 96.8091 5.89C96.8291 5.89 96.8491 5.89 96.8691 5.89C96.8891 5.89 96.8991 5.89 96.8991 5.89H96.9291C97.0291 5.87 97.1291 5.86 97.2291 5.86C97.2491 5.86 97.2691 5.86 97.2891 5.86C97.3091 5.86 97.3191 5.86 97.3191 5.86C97.4591 5.86 97.5891 5.86 97.7091 5.86C97.8291 5.86 97.9591 5.86 98.0991 5.86H98.1891C98.4491 5.88 98.7091 5.91 98.9691 5.95H99.0591C99.2991 5.99 99.5391 6.04 99.7791 6.1L99.8691 6.13C100.009 6.15 100.139 6.18 100.259 6.22C100.359 6.26 100.469 6.3 100.589 6.34C100.609 6.34 100.639 6.35 100.679 6.37C100.759 6.41 100.849 6.44 100.949 6.46L100.979 6.49C101.119 6.55 101.259 6.61 101.399 6.67L101.459 6.7C101.499 6.72 101.559 6.75 101.639 6.79L101.669 6.82L101.609 6.94L101.699 6.82C101.739 6.84 101.769 6.86 101.789 6.88C101.969 6.98 102.149 7.08 102.329 7.18V7.21C102.469 7.29 102.609 7.38 102.749 7.48L102.779 7.51C102.799 7.53 102.829 7.55 102.869 7.57C102.969 7.65 103.079 7.74 103.199 7.84L103.259 7.9C103.359 7.98 103.449 8.06 103.529 8.14H103.559C103.619 8.22 103.679 8.29 103.739 8.35L103.799 8.41C103.899 8.51 103.999 8.61 104.099 8.71L104.009 8.8L104.099 8.74L104.159 8.77C104.199 8.83 104.249 8.9 104.309 8.98L104.369 9.04C104.449 9.12 104.509 9.2 104.549 9.28L104.579 9.31C104.619 9.37 104.669 9.44 104.729 9.52L104.819 9.64C104.859 9.72 104.899 9.78 104.939 9.82L105.089 10.09C105.389 10.65 105.629 11.23 105.809 11.83ZM100.949 12.37C101.029 12.37 101.089 12.34 101.129 12.28C101.189 12.22 101.209 12.15 101.189 12.07C101.089 11.47 100.729 10.97 100.109 10.57C99.4891 10.17 98.7591 9.97 97.9191 9.97C97.3991 9.97 96.8991 10.06 96.4191 10.24C95.9391 10.42 95.5391 10.67 95.2191 10.99C94.8991 11.31 94.7091 11.67 94.6491 12.07C94.6291 12.13 94.6391 12.2 94.6791 12.28C94.7391 12.34 94.8091 12.37 94.8891 12.37H100.949ZM124.582 1.09C124.762 1.09 124.852 1.17 124.852 1.33V21.73C124.852 21.91 124.762 22 124.582 22H120.142C119.962 22 119.872 21.91 119.872 21.73V21.49C119.872 21.35 119.812 21.32 119.692 21.4C118.392 22.12 116.992 22.48 115.492 22.48C113.172 22.48 111.182 21.67 109.522 20.05C107.882 18.43 107.062 16.47 107.062 14.17C107.062 11.87 107.882 9.91 109.522 8.29C111.182 6.65 113.172 5.83 115.492 5.83C116.992 5.83 118.392 6.2 119.692 6.94C119.732 6.96 119.772 6.96 119.812 6.94C119.852 6.92 119.872 6.88 119.872 6.82V1.33C119.872 1.17 119.962 1.09 120.142 1.09H124.582ZM116.272 17.98C117.312 17.98 118.172 17.61 118.852 16.87C119.532 16.13 119.872 15.23 119.872 14.17C119.872 13.09 119.532 12.19 118.852 11.47C118.172 10.73 117.312 10.36 116.272 10.36C115.192 10.36 114.272 10.73 113.512 11.47C112.772 12.21 112.402 13.11 112.402 14.17C112.402 15.21 112.772 16.11 113.512 16.87C114.272 17.61 115.192 17.98 116.272 17.98ZM138.52 5.86C139.68 5.86 140.78 6.08 141.82 6.52C142.86 6.96 143.75 7.55 144.49 8.29C145.25 9.03 145.85 9.92 146.29 10.96C146.75 11.98 146.98 13.05 146.98 14.17C146.98 16.47 146.15 18.44 144.49 20.08C142.85 21.7 140.86 22.51 138.52 22.51C136.2 22.51 134.21 21.7 132.55 20.08C130.91 18.44 130.09 16.47 130.09 14.17C130.09 11.87 130.91 9.91 132.55 8.29C134.21 6.67 136.2 5.86 138.52 5.86ZM138.52 17.8C139.54 17.8 140.41 17.45 141.13 16.75C141.85 16.03 142.21 15.17 142.21 14.17C142.21 13.17 141.85 12.32 141.13 11.62C140.41 10.9 139.54 10.54 138.52 10.54C137.52 10.54 136.66 10.9 135.94 11.62C135.22 12.32 134.86 13.17 134.86 14.17C134.86 14.83 135.02 15.44 135.34 16C135.68 16.56 136.13 17 136.69 17.32C137.25 17.64 137.86 17.8 138.52 17.8ZM161.882 6.1C161.962 6.1 162.022 6.14 162.062 6.22C162.122 6.28 162.142 6.35 162.122 6.43L156.602 21.82C156.562 21.94 156.492 22 156.392 22H151.742C151.622 22 151.542 21.94 151.502 21.82L145.982 6.43C145.962 6.35 145.982 6.28 146.042 6.22C146.082 6.14 146.142 6.1 146.222 6.1H150.662C150.782 6.1 150.862 6.16 150.902 6.28L154.052 15.1L157.202 6.28C157.242 6.16 157.322 6.1 157.442 6.1H161.882ZM177.586 11.83C177.826 12.59 177.946 13.37 177.946 14.17C177.946 14.63 177.896 15.12 177.796 15.64C177.776 15.78 177.696 15.85 177.556 15.85H166.426C166.326 15.85 166.246 15.9 166.186 16C166.146 16.08 166.146 16.16 166.186 16.24C166.546 16.82 167.016 17.28 167.596 17.62C168.176 17.96 168.796 18.13 169.456 18.13C170.676 18.13 171.676 17.64 172.456 16.66C172.516 16.56 172.596 16.52 172.696 16.54L176.956 17.32C177.036 17.34 177.096 17.39 177.136 17.47C177.176 17.53 177.176 17.6 177.136 17.68C177.016 17.96 176.926 18.15 176.866 18.25L176.806 18.37C176.726 18.47 176.646 18.58 176.566 18.7C176.486 18.86 176.396 19 176.296 19.12L176.236 19.18C176.196 19.22 176.166 19.26 176.146 19.3L176.116 19.36C176.056 19.42 175.996 19.49 175.936 19.57L175.876 19.63C175.776 19.73 175.676 19.83 175.576 19.93L175.516 19.99C175.456 20.07 175.396 20.14 175.336 20.2H175.306C175.226 20.28 175.146 20.35 175.066 20.41L175.006 20.5L174.886 20.41L174.976 20.5C174.856 20.6 174.746 20.69 174.646 20.77L174.556 20.86C174.416 20.94 174.276 21.03 174.136 21.13L174.106 21.16C173.946 21.26 173.786 21.35 173.626 21.43L173.566 21.46C173.526 21.48 173.496 21.5 173.476 21.52L173.446 21.55C173.366 21.57 173.296 21.6 173.236 21.64L173.206 21.67C173.046 21.73 172.896 21.79 172.756 21.85L172.726 21.88C172.626 21.92 172.536 21.95 172.456 21.97L172.366 22C172.246 22.04 172.136 22.08 172.036 22.12C171.916 22.16 171.786 22.19 171.646 22.21L171.556 22.24C171.316 22.3 171.076 22.35 170.836 22.39L170.746 22.42C170.486 22.44 170.236 22.46 169.996 22.48H169.876C169.736 22.5 169.606 22.51 169.486 22.51C169.366 22.51 169.236 22.5 169.096 22.48C169.056 22.48 169.036 22.48 169.036 22.48H169.006C168.906 22.48 168.806 22.47 168.706 22.45H168.676C168.656 22.45 168.626 22.45 168.586 22.45C168.446 22.43 168.326 22.41 168.226 22.39H168.136C168.036 22.37 167.936 22.35 167.836 22.33L167.716 22.3C167.636 22.28 167.546 22.26 167.446 22.24H167.416C167.396 22.24 167.376 22.23 167.356 22.21C167.216 22.19 167.096 22.16 166.996 22.12C166.896 22.1 166.776 22.06 166.636 22C166.596 22 166.566 21.99 166.546 21.97C166.446 21.93 166.356 21.9 166.276 21.88L166.246 21.85C166.226 21.85 166.206 21.84 166.186 21.82C166.066 21.78 165.946 21.73 165.826 21.67C165.746 21.63 165.636 21.58 165.496 21.52C165.496 21.5 165.476 21.48 165.436 21.46H165.406C165.326 21.42 165.246 21.38 165.166 21.34L165.076 21.28C164.976 21.2 164.876 21.13 164.776 21.07C163.756 20.39 162.926 19.53 162.286 18.49C162.226 18.41 162.176 18.32 162.136 18.22L162.106 18.19C162.066 18.13 162.016 18.04 161.956 17.92V17.89C161.936 17.87 161.916 17.84 161.896 17.8C161.736 17.48 161.596 17.14 161.476 16.78C161.416 16.58 161.366 16.4 161.326 16.24C161.286 16.12 161.256 15.99 161.236 15.85C161.136 15.43 161.076 15.01 161.056 14.59C161.056 14.45 161.056 14.31 161.056 14.17C161.056 14.03 161.056 13.89 161.056 13.75C161.096 13.01 161.236 12.28 161.476 11.56C161.556 11.34 161.636 11.13 161.716 10.93C161.756 10.83 161.806 10.72 161.866 10.6C161.886 10.58 161.896 10.55 161.896 10.51L161.956 10.45C161.956 10.43 161.966 10.41 161.986 10.39C161.986 10.35 161.996 10.32 162.016 10.3L162.106 10.18C162.166 10.06 162.226 9.95 162.286 9.85C162.926 8.81 163.756 7.95 164.776 7.27C164.876 7.21 164.976 7.14 165.076 7.06L165.166 7.03C165.246 6.97 165.326 6.92 165.406 6.88H165.436C165.436 6.88 165.446 6.88 165.466 6.88C165.486 6.86 165.506 6.84 165.526 6.82C165.646 6.76 165.746 6.71 165.826 6.67C165.946 6.61 166.066 6.56 166.186 6.52C166.186 6.52 166.196 6.52 166.216 6.52C166.236 6.5 166.246 6.49 166.246 6.49L166.276 6.46C166.356 6.44 166.446 6.41 166.546 6.37C166.586 6.35 166.616 6.34 166.636 6.34C166.776 6.3 166.896 6.26 166.996 6.22C167.096 6.18 167.216 6.15 167.356 6.13C167.356 6.11 167.366 6.1 167.386 6.1C167.406 6.1 167.416 6.1 167.416 6.1H167.446C167.526 6.08 167.616 6.06 167.716 6.04L167.806 6.01C167.926 5.99 168.056 5.97 168.196 5.95H168.226C168.326 5.93 168.446 5.91 168.586 5.89C168.606 5.89 168.626 5.89 168.646 5.89C168.666 5.89 168.676 5.89 168.676 5.89H168.706C168.806 5.87 168.906 5.86 169.006 5.86C169.026 5.86 169.046 5.86 169.066 5.86C169.086 5.86 169.096 5.86 169.096 5.86C169.236 5.86 169.366 5.86 169.486 5.86C169.606 5.86 169.736 5.86 169.876 5.86H169.966C170.226 5.88 170.486 5.91 170.746 5.95H170.836C171.076 5.99 171.316 6.04 171.556 6.1L171.646 6.13C171.786 6.15 171.916 6.18 172.036 6.22C172.136 6.26 172.246 6.3 172.366 6.34C172.386 6.34 172.416 6.35 172.456 6.37C172.536 6.41 172.626 6.44 172.726 6.46L172.756 6.49C172.896 6.55 173.036 6.61 173.176 6.67L173.236 6.7C173.276 6.72 173.336 6.75 173.416 6.79L173.446 6.82L173.386 6.94L173.476 6.82C173.516 6.84 173.546 6.86 173.566 6.88C173.746 6.98 173.926 7.08 174.106 7.18V7.21C174.246 7.29 174.386 7.38 174.526 7.48L174.556 7.51C174.576 7.53 174.606 7.55 174.646 7.57C174.746 7.65 174.856 7.74 174.976 7.84L175.036 7.9C175.136 7.98 175.226 8.06 175.306 8.14H175.336C175.396 8.22 175.456 8.29 175.516 8.35L175.576 8.41C175.676 8.51 175.776 8.61 175.876 8.71L175.786 8.8L175.876 8.74L175.936 8.77C175.976 8.83 176.026 8.9 176.086 8.98L176.146 9.04C176.226 9.12 176.286 9.2 176.326 9.28L176.356 9.31C176.396 9.37 176.446 9.44 176.506 9.52L176.596 9.64C176.636 9.72 176.676 9.78 176.716 9.82L176.866 10.09C177.166 10.65 177.406 11.23 177.586 11.83ZM172.726 12.37C172.806 12.37 172.866 12.34 172.906 12.28C172.966 12.22 172.986 12.15 172.966 12.07C172.866 11.47 172.506 10.97 171.886 10.57C171.266 10.17 170.536 9.97 169.696 9.97C169.176 9.97 168.676 10.06 168.196 10.24C167.716 10.42 167.316 10.67 166.996 10.99C166.676 11.31 166.486 11.67 166.426 12.07C166.406 12.13 166.416 12.2 166.456 12.28C166.516 12.34 166.586 12.37 166.666 12.37H172.726ZM187.48 6.1C187.66 6.1 187.75 6.19 187.75 6.37L187.6 10.09C187.58 10.27 187.48 10.35 187.3 10.33C186.48 10.25 185.88 10.26 185.5 10.36C185.02 10.48 184.69 10.74 184.51 11.14C184.33 11.5 184.24 12.05 184.24 12.79V21.76C184.24 21.92 184.16 22 184 22H179.23C179.07 22 178.99 21.92 178.99 21.76V6.34C178.99 6.18 179.07 6.1 179.23 6.1H183.7C183.86 6.1 183.94 6.18 183.94 6.34V6.79C183.94 6.85 183.96 6.89 184 6.91C184.04 6.93 184.08 6.93 184.12 6.91C184.96 6.39 186.08 6.12 187.48 6.1ZM39.193 29.97C39.353 29.97 39.433 30.06 39.433 30.24V34.56C39.433 34.74 39.353 34.83 39.193 34.83H35.443C35.283 34.83 35.203 34.91 35.203 35.07V50.76C35.203 50.92 35.113 51 34.933 51H30.103C29.923 51 29.833 50.92 29.833 50.76V35.07C29.833 34.91 29.753 34.83 29.593 34.83H25.813C25.653 34.83 25.573 34.74 25.573 34.56V30.24C25.573 30.06 25.653 29.97 25.813 29.97H39.193ZM52.518 46.23C52.598 46.23 52.658 46.26 52.698 46.32C52.758 46.36 52.788 46.42 52.788 46.5L52.338 50.82C52.338 50.98 52.258 51.06 52.098 51.06H40.668C40.468 51.06 40.368 50.96 40.368 50.76V30.33C40.368 30.15 40.458 30.06 40.638 30.06H52.098C52.258 30.06 52.338 30.14 52.338 30.3L52.788 34.59C52.788 34.67 52.758 34.74 52.698 34.8C52.658 34.86 52.588 34.89 52.488 34.89H45.978C45.798 34.89 45.708 34.98 45.708 35.16V37.71C45.708 37.89 45.798 37.98 45.978 37.98H50.718C50.898 37.98 50.988 38.06 50.988 38.22V42.54C50.988 42.72 50.898 42.81 50.718 42.81H45.978C45.798 42.81 45.708 42.89 45.708 43.05V45.96C45.708 46.14 45.798 46.23 45.978 46.23H52.518ZM74.2998 39.45C74.3398 39.93 74.3598 40.29 74.3598 40.53C74.3598 41.63 74.2098 42.7 73.9098 43.74C73.5498 44.94 73.0098 46.05 72.2898 47.07C71.2898 48.47 70.0398 49.57 68.5398 50.37C66.9798 51.19 65.3298 51.6 63.5898 51.6C61.6298 51.6 59.8198 51.11 58.1598 50.13C56.4998 49.13 55.1898 47.78 54.2298 46.08C53.2698 44.38 52.7898 42.53 52.7898 40.53C52.7898 39.05 53.0698 37.63 53.6298 36.27C54.2098 34.89 54.9798 33.71 55.9398 32.73C56.8998 31.73 58.0498 30.94 59.3898 30.36C60.7298 29.78 62.1298 29.49 63.5898 29.49C65.3298 29.49 66.9798 29.9 68.5398 30.72C69.8398 31.42 70.9598 32.35 71.8998 33.51C72.0598 33.71 72.0398 33.88 71.8398 34.02L68.3898 36.6C68.2498 36.7 68.1298 36.69 68.0298 36.57C67.4698 35.91 66.7998 35.4 66.0198 35.04C65.2398 34.68 64.4298 34.5 63.5898 34.5C61.9498 34.5 60.5498 35.09 59.3898 36.27C58.2498 37.45 57.6798 38.87 57.6798 40.53C57.6798 42.19 58.2498 43.61 59.3898 44.79C60.5498 45.97 61.9498 46.56 63.5898 46.56C64.5098 46.56 65.3798 46.36 66.1998 45.96C67.0198 45.54 67.7198 44.95 68.2998 44.19C68.3598 44.09 68.3598 44 68.2998 43.92C68.2598 43.82 68.1898 43.77 68.0898 43.77H63.0498C62.8698 43.77 62.7798 43.68 62.7798 43.5V39.48C62.7798 39.3 62.8698 39.21 63.0498 39.21H74.0298C74.1898 39.21 74.2798 39.29 74.2998 39.45ZM101.379 36.51C102.159 37.27 102.669 38.03 102.909 38.79C103.149 39.55 103.269 40.55 103.269 41.79V50.76C103.269 50.92 103.189 51 103.029 51H98.2893C98.1093 51 98.0193 50.92 98.0193 50.76V42.06C98.0193 41.26 97.9293 40.65 97.7493 40.23C97.6293 39.99 97.4793 39.8 97.2993 39.66C96.9993 39.44 96.6093 39.33 96.1293 39.33C95.1293 39.33 94.5093 39.6 94.2693 40.14C94.1093 40.5 94.0293 41.14 94.0293 42.06V50.76C94.0293 50.92 93.9393 51 93.7593 51H89.1393C88.9793 51 88.8993 50.92 88.8993 50.76V42.06C88.8993 41.26 88.7993 40.65 88.5993 40.23C88.4793 39.99 88.3293 39.8 88.1493 39.66C87.8693 39.44 87.4793 39.33 86.9793 39.33C85.9993 39.33 85.3893 39.6 85.1493 40.14C84.9693 40.5 84.8793 41.14 84.8793 42.06V50.76C84.8793 50.92 84.7993 51 84.6393 51H79.8693C79.7093 51 79.6293 50.92 79.6293 50.76V35.34C79.6293 35.18 79.7093 35.1 79.8693 35.1H84.3393C84.4993 35.1 84.5793 35.18 84.5793 35.34V35.79C84.5793 35.83 84.5993 35.87 84.6393 35.91C84.6993 35.93 84.7493 35.92 84.7893 35.88C85.4493 35.42 86.1493 35.12 86.8893 34.98C87.6293 34.84 88.2693 34.82 88.8093 34.92C89.3493 35 89.8793 35.15 90.3993 35.37C90.9193 35.59 91.2693 35.77 91.4493 35.91C91.6493 36.03 91.7893 36.12 91.8693 36.18C92.0093 36.28 92.1293 36.39 92.2293 36.51C92.3293 36.61 92.4293 36.7 92.5293 36.78C92.6493 36.94 92.7693 36.94 92.8893 36.78C93.1693 36.44 93.4993 36.14 93.8793 35.88C94.3793 35.52 94.8893 35.27 95.4093 35.13C95.8093 34.99 96.2193 34.91 96.6393 34.89C97.0793 34.85 97.4693 34.85 97.8093 34.89C98.1693 34.93 98.5193 35.01 98.8593 35.13C99.2193 35.23 99.5093 35.34 99.7293 35.46C99.9693 35.56 100.199 35.68 100.419 35.82C100.639 35.94 100.779 36.03 100.839 36.09C100.919 36.13 100.979 36.16 101.019 36.18C101.159 36.28 101.279 36.39 101.379 36.51ZM112.636 34.86C113.796 34.86 114.896 35.08 115.936 35.52C116.976 35.96 117.866 36.55 118.606 37.29C119.366 38.03 119.966 38.92 120.406 39.96C120.866 40.98 121.096 42.05 121.096 43.17C121.096 45.47 120.266 47.44 118.606 49.08C116.966 50.7 114.976 51.51 112.636 51.51C110.316 51.51 108.326 50.7 106.666 49.08C105.026 47.44 104.206 45.47 104.206 43.17C104.206 40.87 105.026 38.91 106.666 37.29C108.326 35.67 110.316 34.86 112.636 34.86ZM112.636 46.8C113.656 46.8 114.526 46.45 115.246 45.75C115.966 45.03 116.326 44.17 116.326 43.17C116.326 42.17 115.966 41.32 115.246 40.62C114.526 39.9 113.656 39.54 112.636 39.54C111.636 39.54 110.776 39.9 110.056 40.62C109.336 41.32 108.976 42.17 108.976 43.17C108.976 43.83 109.136 44.44 109.456 45C109.796 45.56 110.246 46 110.806 46.32C111.366 46.64 111.976 46.8 112.636 46.8ZM134.739 36.51C135.519 37.27 136.029 38.03 136.269 38.79C136.529 39.55 136.659 40.55 136.659 41.79V50.76C136.659 50.92 136.569 51 136.389 51H131.649C131.489 51 131.409 50.92 131.409 50.76V42.06C131.409 41.26 131.309 40.65 131.109 40.23C130.989 39.99 130.839 39.8 130.659 39.66C130.379 39.44 129.989 39.33 129.489 39.33C128.509 39.33 127.899 39.6 127.659 40.14C127.479 40.5 127.389 41.14 127.389 42.06V50.76C127.389 50.92 127.309 51 127.149 51H122.379C122.219 51 122.139 50.92 122.139 50.76V35.34C122.139 35.18 122.219 35.1 122.379 35.1H126.849C127.009 35.1 127.089 35.18 127.089 35.34V35.79C127.089 35.83 127.109 35.87 127.149 35.91C127.209 35.93 127.259 35.92 127.299 35.88C127.959 35.42 128.659 35.12 129.399 34.98C130.139 34.84 130.779 34.82 131.319 34.92C131.859 35 132.389 35.15 132.909 35.37C133.429 35.59 133.779 35.77 133.959 35.91C134.159 36.03 134.299 36.12 134.379 36.18C134.519 36.28 134.639 36.39 134.739 36.51ZM146.613 46.86C146.693 46.86 146.753 46.89 146.793 46.95C146.853 47.01 146.883 47.08 146.883 47.16L146.313 50.91C146.293 51.05 146.213 51.12 146.073 51.12C144.773 51.2 143.953 51.24 143.613 51.24C143.593 51.24 143.573 51.24 143.553 51.24C142.193 51.18 141.163 50.81 140.463 50.13C139.763 49.45 139.413 48.49 139.413 47.25V39.6C139.413 39.44 139.323 39.36 139.143 39.36H137.493C137.333 39.36 137.253 39.27 137.253 39.09V35.34C137.253 35.16 137.333 35.07 137.493 35.07H139.143C139.323 35.07 139.413 34.99 139.413 34.83V30.48C139.413 30.3 139.493 30.21 139.653 30.21H144.123C144.283 30.21 144.363 30.3 144.363 30.48V34.83C144.363 34.99 144.443 35.07 144.603 35.07H146.253C146.433 35.07 146.523 35.16 146.523 35.34V39.09C146.523 39.27 146.433 39.36 146.253 39.36H144.603C144.443 39.36 144.363 39.44 144.363 39.6C144.363 43.1 144.363 44.86 144.363 44.88V44.97C144.343 45.73 144.453 46.25 144.693 46.53C144.933 46.75 145.293 46.86 145.773 46.86H146.613ZM160.52 36.51C161.3 37.27 161.81 38.03 162.05 38.79C162.31 39.55 162.44 40.55 162.44 41.79V50.76C162.44 50.92 162.35 51 162.17 51H157.43C157.27 51 157.19 50.92 157.19 50.76V42.06C157.19 41.26 157.09 40.65 156.89 40.23C156.77 39.99 156.62 39.8 156.44 39.66C156.16 39.44 155.77 39.33 155.27 39.33C154.29 39.33 153.68 39.6 153.44 40.14C153.26 40.5 153.17 41.14 153.17 42.06V50.76C153.17 50.92 153.09 51 152.93 51H148.16C148 51 147.92 50.92 147.92 50.76V30.33C147.92 30.17 148 30.09 148.16 30.09H152.63C152.79 30.09 152.87 30.17 152.87 30.33V35.79C152.87 35.83 152.89 35.87 152.93 35.91C152.99 35.93 153.04 35.92 153.08 35.88C153.74 35.42 154.44 35.12 155.18 34.98C155.92 34.84 156.56 34.82 157.1 34.92C157.64 35 158.17 35.15 158.69 35.37C159.21 35.59 159.56 35.77 159.74 35.91C159.94 36.03 160.08 36.12 160.16 36.18C160.3 36.28 160.42 36.39 160.52 36.51Z" fill="url(#paint0_linear_5685_11968)"/>
<defs>
<linearGradient id="paint0_linear_5685_11968" x1="230.078" y1="-74.9584" x2="-47.2245" y2="-49.9214" gradientUnits="userSpaceOnUse">
<stop stop-color="#F3FC1F"/>
<stop offset="0.46875" stop-color="#F3FC1F"/>
<stop offset="1" stop-color="#00FF80"/>
</linearGradient>
</defs>
</svg>
