<svg width="214" height="23" viewBox="0 0 214 23" fill="none" xmlns="http://www.w3.org/2000/svg">
<path d="M15.99 1.03C16.15 1.03 16.23 1.11 16.23 1.27V13.66C16.23 15.34 16.05 16.66 15.69 17.62C15.35 18.56 14.82 19.4 14.1 20.14C12.6 21.68 10.71 22.45 8.43 22.45C5.93 22.45 3.98 21.69 2.58 20.17C1.72 19.21 1.15 18.27 0.87 17.35C0.59 16.43 0.45 15.2 0.45 13.66V1.27C0.45 1.11 0.53 1.03 0.69 1.03H5.55C5.71 1.03 5.79 1.11 5.79 1.27V13.66C5.79 14.68 5.9 15.46 6.12 16C6.3 16.38 6.59 16.68 6.99 16.9C7.41 17.12 7.87 17.23 8.37 17.23C9.53 17.23 10.27 16.85 10.59 16.09C10.79 15.61 10.89 14.8 10.89 13.66V1.27C10.89 1.11 10.97 1.03 11.13 1.03H15.99ZM29.8992 7.51C30.6792 8.27 31.1892 9.03 31.4292 9.79C31.6892 10.55 31.8192 11.55 31.8192 12.79V21.76C31.8192 21.92 31.7292 22 31.5492 22H26.8092C26.6492 22 26.5692 21.92 26.5692 21.76V13.06C26.5692 12.26 26.4692 11.65 26.2692 11.23C26.1492 10.99 25.9992 10.8 25.8192 10.66C25.5392 10.44 25.1492 10.33 24.6492 10.33C23.6692 10.33 23.0592 10.6 22.8192 11.14C22.6392 11.5 22.5492 12.14 22.5492 13.06V21.76C22.5492 21.92 22.4692 22 22.3092 22H17.5392C17.3792 22 17.2992 21.92 17.2992 21.76V6.34C17.2992 6.18 17.3792 6.1 17.5392 6.1H22.0092C22.1692 6.1 22.2492 6.18 22.2492 6.34V6.79C22.2492 6.83 22.2692 6.87 22.3092 6.91C22.3692 6.93 22.4192 6.92 22.4592 6.88C23.1192 6.42 23.8192 6.12 24.5592 5.98C25.2992 5.84 25.9392 5.82 26.4792 5.92C27.0192 6 27.5492 6.15 28.0692 6.37C28.5892 6.59 28.9392 6.77 29.1192 6.91C29.3192 7.03 29.4592 7.12 29.5392 7.18C29.6792 7.28 29.7992 7.39 29.8992 7.51ZM37.8059 1.09C37.9859 1.09 38.0759 1.17 38.0759 1.33V21.76C38.0759 21.92 37.9859 22 37.8059 22H33.0959C32.9359 22 32.8559 21.92 32.8559 21.76V1.33C32.8559 1.17 32.9359 1.09 33.0959 1.09H37.8059ZM47.5519 5.86C48.7119 5.86 49.8119 6.08 50.8519 6.52C51.8919 6.96 52.7819 7.55 53.5219 8.29C54.2819 9.03 54.8819 9.92 55.3219 10.96C55.7819 11.98 56.0119 13.05 56.0119 14.17C56.0119 16.47 55.1819 18.44 53.5219 20.08C51.8819 21.7 49.8919 22.51 47.5519 22.51C45.2319 22.51 43.2419 21.7 41.5819 20.08C39.9419 18.44 39.1219 16.47 39.1219 14.17C39.1219 11.87 39.9419 9.91 41.5819 8.29C43.2419 6.67 45.2319 5.86 47.5519 5.86ZM47.5519 17.8C48.5719 17.8 49.4419 17.45 50.1619 16.75C50.8819 16.03 51.2419 15.17 51.2419 14.17C51.2419 13.17 50.8819 12.32 50.1619 11.62C49.4419 10.9 48.5719 10.54 47.5519 10.54C46.5519 10.54 45.6919 10.9 44.9719 11.62C44.2519 12.32 43.8919 13.17 43.8919 14.17C43.8919 14.83 44.0519 15.44 44.3719 16C44.7119 16.56 45.1619 17 45.7219 17.32C46.2819 17.64 46.8919 17.8 47.5519 17.8ZM72.4451 18.19C72.5851 18.27 72.6151 18.39 72.5351 18.55C72.3351 18.83 72.1951 19.03 72.1151 19.15C71.9551 19.35 71.7851 19.55 71.6051 19.75C71.5451 19.81 71.4551 19.9 71.3351 20.02C71.3151 20.04 71.3051 20.06 71.3051 20.08C71.2451 20.14 71.1651 20.21 71.0651 20.29C71.0251 20.31 70.9851 20.35 70.9451 20.41C70.9051 20.43 70.8651 20.46 70.8251 20.5C69.5651 21.54 68.1251 22.18 66.5051 22.42C66.4651 22.42 66.4151 22.42 66.3551 22.42C66.2751 22.44 66.2051 22.45 66.1451 22.45C66.0451 22.47 65.9451 22.48 65.8451 22.48C65.8051 22.48 65.7651 22.48 65.7251 22.48C65.5651 22.48 65.4351 22.48 65.3351 22.48C63.0151 22.48 61.0251 21.67 59.3651 20.05C57.7251 18.43 56.9051 16.47 56.9051 14.17C56.9051 11.87 57.7251 9.91 59.3651 8.29C61.0251 6.65 63.0151 5.83 65.3351 5.83C65.4551 5.83 65.5851 5.84 65.7251 5.86C65.7851 5.86 65.8251 5.86 65.8451 5.86C65.9451 5.86 66.0451 5.87 66.1451 5.89C66.1851 5.89 66.2551 5.89 66.3551 5.89C66.4151 5.91 66.4651 5.92 66.5051 5.92C68.1251 6.14 69.5651 6.78 70.8251 7.84C70.8451 7.84 70.8651 7.85 70.8851 7.87C70.9051 7.89 70.9251 7.91 70.9451 7.93C70.9851 7.97 71.0251 8.01 71.0651 8.05C71.1451 8.13 71.2251 8.2 71.3051 8.26L71.3351 8.29V8.32C71.4351 8.4 71.5151 8.48 71.5751 8.56C71.5951 8.58 71.6051 8.59 71.6051 8.59C71.7851 8.79 71.9551 8.99 72.1151 9.19C72.2751 9.39 72.4251 9.61 72.5651 9.85C72.6251 9.95 72.6051 10.04 72.5051 10.12L70.2251 11.41L68.9351 12.16C68.7951 12.24 68.6851 12.22 68.6051 12.1C67.8251 10.94 66.8251 10.36 65.6051 10.36C64.4051 10.36 63.4151 10.81 62.6351 11.71C61.9951 12.41 61.6751 13.23 61.6751 14.17C61.6751 15.11 61.9951 15.92 62.6351 16.6C63.4151 17.52 64.4051 17.98 65.6051 17.98C66.8251 17.98 67.8251 17.4 68.6051 16.24C68.6851 16.1 68.7951 16.07 68.9351 16.15L72.4451 18.19ZM82.7571 14.17L87.2271 21.61C87.2671 21.69 87.2571 21.78 87.1971 21.88C87.1571 21.96 87.0871 22 86.9871 22H81.8271C81.7271 22 81.6571 21.96 81.6171 21.88L79.0671 17.11C79.0071 16.99 78.9071 16.95 78.7671 16.99C78.6471 17.01 78.5871 17.09 78.5871 17.23V21.76C78.5871 21.92 78.5071 22 78.3471 22H73.8771C73.7171 22 73.6371 21.92 73.6371 21.76V1.33C73.6371 1.17 73.7171 1.09 73.8771 1.09H78.3471C78.5071 1.09 78.5871 1.17 78.5871 1.33V10.87C78.5871 11.01 78.6471 11.1 78.7671 11.14C78.9071 11.16 79.0071 11.11 79.0671 10.99L81.6171 6.22C81.6571 6.14 81.7271 6.1 81.8271 6.1H86.9871C87.0871 6.1 87.1571 6.15 87.1971 6.25C87.2571 6.33 87.2671 6.41 87.2271 6.49L82.7571 13.93C82.6971 14.01 82.6971 14.09 82.7571 14.17ZM101.824 11.83C102.064 12.59 102.184 13.37 102.184 14.17C102.184 14.63 102.134 15.12 102.034 15.64C102.014 15.78 101.934 15.85 101.794 15.85H90.6638C90.5638 15.85 90.4838 15.9 90.4238 16C90.3838 16.08 90.3838 16.16 90.4238 16.24C90.7838 16.82 91.2538 17.28 91.8338 17.62C92.4138 17.96 93.0338 18.13 93.6938 18.13C94.9138 18.13 95.9138 17.64 96.6938 16.66C96.7538 16.56 96.8338 16.52 96.9338 16.54L101.194 17.32C101.274 17.34 101.334 17.39 101.374 17.47C101.414 17.53 101.414 17.6 101.374 17.68C101.254 17.96 101.164 18.15 101.104 18.25L101.044 18.37C100.964 18.47 100.884 18.58 100.804 18.7C100.724 18.86 100.634 19 100.534 19.12L100.474 19.18C100.434 19.22 100.404 19.26 100.384 19.3L100.354 19.36C100.294 19.42 100.234 19.49 100.174 19.57L100.114 19.63C100.014 19.73 99.9138 19.83 99.8138 19.93L99.7538 19.99C99.6938 20.07 99.6338 20.14 99.5738 20.2H99.5438C99.4638 20.28 99.3838 20.35 99.3038 20.41L99.2438 20.5L99.1238 20.41L99.2138 20.5C99.0938 20.6 98.9838 20.69 98.8838 20.77L98.7938 20.86C98.6538 20.94 98.5138 21.03 98.3738 21.13L98.3438 21.16C98.1838 21.26 98.0238 21.35 97.8638 21.43L97.8038 21.46C97.7638 21.48 97.7338 21.5 97.7138 21.52L97.6838 21.55C97.6038 21.57 97.5338 21.6 97.4738 21.64L97.4438 21.67C97.2838 21.73 97.1338 21.79 96.9938 21.85L96.9638 21.88C96.8638 21.92 96.7738 21.95 96.6938 21.97L96.6038 22C96.4838 22.04 96.3738 22.08 96.2738 22.12C96.1538 22.16 96.0238 22.19 95.8838 22.21L95.7938 22.24C95.5538 22.3 95.3138 22.35 95.0738 22.39L94.9838 22.42C94.7238 22.44 94.4738 22.46 94.2338 22.48H94.1138C93.9738 22.5 93.8438 22.51 93.7238 22.51C93.6038 22.51 93.4738 22.5 93.3338 22.48C93.2938 22.48 93.2738 22.48 93.2738 22.48H93.2438C93.1438 22.48 93.0438 22.47 92.9438 22.45H92.9138C92.8938 22.45 92.8638 22.45 92.8238 22.45C92.6838 22.43 92.5638 22.41 92.4638 22.39H92.3738C92.2738 22.37 92.1738 22.35 92.0738 22.33L91.9538 22.3C91.8738 22.28 91.7838 22.26 91.6838 22.24H91.6538C91.6338 22.24 91.6138 22.23 91.5938 22.21C91.4538 22.19 91.3338 22.16 91.2338 22.12C91.1338 22.1 91.0138 22.06 90.8738 22C90.8338 22 90.8038 21.99 90.7838 21.97C90.6838 21.93 90.5938 21.9 90.5138 21.88L90.4838 21.85C90.4638 21.85 90.4438 21.84 90.4238 21.82C90.3038 21.78 90.1838 21.73 90.0638 21.67C89.9838 21.63 89.8738 21.58 89.7338 21.52C89.7338 21.5 89.7138 21.48 89.6738 21.46H89.6438C89.5638 21.42 89.4838 21.38 89.4038 21.34L89.3138 21.28C89.2138 21.2 89.1138 21.13 89.0138 21.07C87.9938 20.39 87.1638 19.53 86.5238 18.49C86.4638 18.41 86.4138 18.32 86.3738 18.22L86.3438 18.19C86.3038 18.13 86.2538 18.04 86.1938 17.92V17.89C86.1738 17.87 86.1538 17.84 86.1338 17.8C85.9738 17.48 85.8338 17.14 85.7138 16.78C85.6538 16.58 85.6038 16.4 85.5638 16.24C85.5238 16.12 85.4938 15.99 85.4738 15.85C85.3738 15.43 85.3138 15.01 85.2938 14.59C85.2938 14.45 85.2938 14.31 85.2938 14.17C85.2938 14.03 85.2938 13.89 85.2938 13.75C85.3338 13.01 85.4738 12.28 85.7138 11.56C85.7938 11.34 85.8738 11.13 85.9538 10.93C85.9938 10.83 86.0438 10.72 86.1038 10.6C86.1238 10.58 86.1338 10.55 86.1338 10.51L86.1938 10.45C86.1938 10.43 86.2038 10.41 86.2238 10.39C86.2238 10.35 86.2338 10.32 86.2538 10.3L86.3438 10.18C86.4038 10.06 86.4638 9.95 86.5238 9.85C87.1638 8.81 87.9938 7.95 89.0138 7.27C89.1138 7.21 89.2138 7.14 89.3138 7.06L89.4038 7.03C89.4838 6.97 89.5638 6.92 89.6438 6.88H89.6738C89.6738 6.88 89.6838 6.88 89.7038 6.88C89.7238 6.86 89.7438 6.84 89.7638 6.82C89.8838 6.76 89.9838 6.71 90.0638 6.67C90.1838 6.61 90.3038 6.56 90.4238 6.52C90.4238 6.52 90.4338 6.52 90.4538 6.52C90.4738 6.5 90.4838 6.49 90.4838 6.49L90.5138 6.46C90.5938 6.44 90.6838 6.41 90.7838 6.37C90.8238 6.35 90.8538 6.34 90.8738 6.34C91.0138 6.3 91.1338 6.26 91.2338 6.22C91.3338 6.18 91.4538 6.15 91.5938 6.13C91.5938 6.11 91.6038 6.1 91.6238 6.1C91.6438 6.1 91.6538 6.1 91.6538 6.1H91.6838C91.7638 6.08 91.8538 6.06 91.9538 6.04L92.0438 6.01C92.1638 5.99 92.2938 5.97 92.4338 5.95H92.4638C92.5638 5.93 92.6838 5.91 92.8238 5.89C92.8438 5.89 92.8638 5.89 92.8838 5.89C92.9038 5.89 92.9138 5.89 92.9138 5.89H92.9438C93.0438 5.87 93.1438 5.86 93.2438 5.86C93.2638 5.86 93.2838 5.86 93.3038 5.86C93.3238 5.86 93.3338 5.86 93.3338 5.86C93.4738 5.86 93.6038 5.86 93.7238 5.86C93.8438 5.86 93.9738 5.86 94.1138 5.86H94.2038C94.4638 5.88 94.7238 5.91 94.9838 5.95H95.0738C95.3138 5.99 95.5538 6.04 95.7938 6.1L95.8838 6.13C96.0238 6.15 96.1538 6.18 96.2738 6.22C96.3738 6.26 96.4838 6.3 96.6038 6.34C96.6238 6.34 96.6538 6.35 96.6938 6.37C96.7738 6.41 96.8638 6.44 96.9638 6.46L96.9938 6.49C97.1338 6.55 97.2738 6.61 97.4138 6.67L97.4738 6.7C97.5138 6.72 97.5738 6.75 97.6538 6.79L97.6838 6.82L97.6238 6.94L97.7138 6.82C97.7538 6.84 97.7838 6.86 97.8038 6.88C97.9838 6.98 98.1638 7.08 98.3438 7.18V7.21C98.4838 7.29 98.6238 7.38 98.7638 7.48L98.7938 7.51C98.8138 7.53 98.8438 7.55 98.8838 7.57C98.9838 7.65 99.0938 7.74 99.2138 7.84L99.2738 7.9C99.3738 7.98 99.4638 8.06 99.5438 8.14H99.5738C99.6338 8.22 99.6938 8.29 99.7538 8.35L99.8138 8.41C99.9138 8.51 100.014 8.61 100.114 8.71L100.024 8.8L100.114 8.74L100.174 8.77C100.214 8.83 100.264 8.9 100.324 8.98L100.384 9.04C100.464 9.12 100.524 9.2 100.564 9.28L100.594 9.31C100.634 9.37 100.684 9.44 100.744 9.52L100.834 9.64C100.874 9.72 100.914 9.78 100.954 9.82L101.104 10.09C101.404 10.65 101.644 11.23 101.824 11.83ZM96.9638 12.37C97.0438 12.37 97.1038 12.34 97.1438 12.28C97.2038 12.22 97.2238 12.15 97.2038 12.07C97.1038 11.47 96.7438 10.97 96.1238 10.57C95.5038 10.17 94.7738 9.97 93.9338 9.97C93.4138 9.97 92.9138 10.06 92.4338 10.24C91.9538 10.42 91.5538 10.67 91.2338 10.99C90.9138 11.31 90.7238 11.67 90.6638 12.07C90.6438 12.13 90.6538 12.2 90.6938 12.28C90.7538 12.34 90.8238 12.37 90.9038 12.37H96.9638ZM120.597 1.09C120.777 1.09 120.867 1.17 120.867 1.33V21.73C120.867 21.91 120.777 22 120.597 22H116.157C115.977 22 115.887 21.91 115.887 21.73V21.49C115.887 21.35 115.827 21.32 115.707 21.4C114.407 22.12 113.007 22.48 111.507 22.48C109.187 22.48 107.197 21.67 105.537 20.05C103.897 18.43 103.077 16.47 103.077 14.17C103.077 11.87 103.897 9.91 105.537 8.29C107.197 6.65 109.187 5.83 111.507 5.83C113.007 5.83 114.407 6.2 115.707 6.94C115.747 6.96 115.787 6.96 115.827 6.94C115.867 6.92 115.887 6.88 115.887 6.82V1.33C115.887 1.17 115.977 1.09 116.157 1.09H120.597ZM112.287 17.98C113.327 17.98 114.187 17.61 114.867 16.87C115.547 16.13 115.887 15.23 115.887 14.17C115.887 13.09 115.547 12.19 114.867 11.47C114.187 10.73 113.327 10.36 112.287 10.36C111.207 10.36 110.287 10.73 109.527 11.47C108.787 12.21 108.417 13.11 108.417 14.17C108.417 15.21 108.787 16.11 109.527 16.87C110.287 17.61 111.207 17.98 112.287 17.98ZM139.724 0.969999C139.884 0.969999 139.964 1.06 139.964 1.24V5.56C139.964 5.74 139.884 5.83 139.724 5.83H135.974C135.814 5.83 135.734 5.91 135.734 6.07V21.76C135.734 21.92 135.644 22 135.464 22H130.634C130.454 22 130.364 21.92 130.364 21.76V6.07C130.364 5.91 130.284 5.83 130.124 5.83H126.344C126.184 5.83 126.104 5.74 126.104 5.56V1.24C126.104 1.06 126.184 0.969999 126.344 0.969999H139.724ZM145.726 5.86C146.886 5.86 147.986 6.08 149.026 6.52C150.066 6.96 150.956 7.55 151.696 8.29C152.456 9.03 153.056 9.92 153.496 10.96C153.956 11.98 154.186 13.05 154.186 14.17C154.186 16.47 153.356 18.44 151.696 20.08C150.056 21.7 148.066 22.51 145.726 22.51C143.406 22.51 141.416 21.7 139.756 20.08C138.116 18.44 137.296 16.47 137.296 14.17C137.296 11.87 138.116 9.91 139.756 8.29C141.416 6.67 143.406 5.86 145.726 5.86ZM145.726 17.8C146.746 17.8 147.616 17.45 148.336 16.75C149.056 16.03 149.416 15.17 149.416 14.17C149.416 13.17 149.056 12.32 148.336 11.62C147.616 10.9 146.746 10.54 145.726 10.54C144.726 10.54 143.866 10.9 143.146 11.62C142.426 12.32 142.066 13.17 142.066 14.17C142.066 14.83 142.226 15.44 142.546 16C142.886 16.56 143.336 17 143.896 17.32C144.456 17.64 145.066 17.8 145.726 17.8ZM164.349 14.17L168.819 21.61C168.859 21.69 168.849 21.78 168.789 21.88C168.749 21.96 168.679 22 168.579 22H163.419C163.319 22 163.249 21.96 163.209 21.88L160.659 17.11C160.599 16.99 160.499 16.95 160.359 16.99C160.239 17.01 160.179 17.09 160.179 17.23V21.76C160.179 21.92 160.099 22 159.939 22H155.469C155.309 22 155.229 21.92 155.229 21.76V1.33C155.229 1.17 155.309 1.09 155.469 1.09H159.939C160.099 1.09 160.179 1.17 160.179 1.33V10.87C160.179 11.01 160.239 11.1 160.359 11.14C160.499 11.16 160.599 11.11 160.659 10.99L163.209 6.22C163.249 6.14 163.319 6.1 163.419 6.1H168.579C168.679 6.1 168.749 6.15 168.789 6.25C168.849 6.33 168.859 6.41 168.819 6.49L164.349 13.93C164.289 14.01 164.289 14.09 164.349 14.17ZM183.416 11.83C183.656 12.59 183.776 13.37 183.776 14.17C183.776 14.63 183.726 15.12 183.626 15.64C183.606 15.78 183.526 15.85 183.386 15.85H172.256C172.156 15.85 172.076 15.9 172.016 16C171.976 16.08 171.976 16.16 172.016 16.24C172.376 16.82 172.846 17.28 173.426 17.62C174.006 17.96 174.626 18.13 175.286 18.13C176.506 18.13 177.506 17.64 178.286 16.66C178.346 16.56 178.426 16.52 178.526 16.54L182.786 17.32C182.866 17.34 182.926 17.39 182.966 17.47C183.006 17.53 183.006 17.6 182.966 17.68C182.846 17.96 182.756 18.15 182.696 18.25L182.636 18.37C182.556 18.47 182.476 18.58 182.396 18.7C182.316 18.86 182.226 19 182.126 19.12L182.066 19.18C182.026 19.22 181.996 19.26 181.976 19.3L181.946 19.36C181.886 19.42 181.826 19.49 181.766 19.57L181.706 19.63C181.606 19.73 181.506 19.83 181.406 19.93L181.346 19.99C181.286 20.07 181.226 20.14 181.166 20.2H181.136C181.056 20.28 180.976 20.35 180.896 20.41L180.836 20.5L180.716 20.41L180.806 20.5C180.686 20.6 180.576 20.69 180.476 20.77L180.386 20.86C180.246 20.94 180.106 21.03 179.966 21.13L179.936 21.16C179.776 21.26 179.616 21.35 179.456 21.43L179.396 21.46C179.356 21.48 179.326 21.5 179.306 21.52L179.276 21.55C179.196 21.57 179.126 21.6 179.066 21.64L179.036 21.67C178.876 21.73 178.726 21.79 178.586 21.85L178.556 21.88C178.456 21.92 178.366 21.95 178.286 21.97L178.196 22C178.076 22.04 177.966 22.08 177.866 22.12C177.746 22.16 177.616 22.19 177.476 22.21L177.386 22.24C177.146 22.3 176.906 22.35 176.666 22.39L176.576 22.42C176.316 22.44 176.066 22.46 175.826 22.48H175.706C175.566 22.5 175.436 22.51 175.316 22.51C175.196 22.51 175.066 22.5 174.926 22.48C174.886 22.48 174.866 22.48 174.866 22.48H174.836C174.736 22.48 174.636 22.47 174.536 22.45H174.506C174.486 22.45 174.456 22.45 174.416 22.45C174.276 22.43 174.156 22.41 174.056 22.39H173.966C173.866 22.37 173.766 22.35 173.666 22.33L173.546 22.3C173.466 22.28 173.376 22.26 173.276 22.24H173.246C173.226 22.24 173.206 22.23 173.186 22.21C173.046 22.19 172.926 22.16 172.826 22.12C172.726 22.1 172.606 22.06 172.466 22C172.426 22 172.396 21.99 172.376 21.97C172.276 21.93 172.186 21.9 172.106 21.88L172.076 21.85C172.056 21.85 172.036 21.84 172.016 21.82C171.896 21.78 171.776 21.73 171.656 21.67C171.576 21.63 171.466 21.58 171.326 21.52C171.326 21.5 171.306 21.48 171.266 21.46H171.236C171.156 21.42 171.076 21.38 170.996 21.34L170.906 21.28C170.806 21.2 170.706 21.13 170.606 21.07C169.586 20.39 168.756 19.53 168.116 18.49C168.056 18.41 168.006 18.32 167.966 18.22L167.936 18.19C167.896 18.13 167.846 18.04 167.786 17.92V17.89C167.766 17.87 167.746 17.84 167.726 17.8C167.566 17.48 167.426 17.14 167.306 16.78C167.246 16.58 167.196 16.4 167.156 16.24C167.116 16.12 167.086 15.99 167.066 15.85C166.966 15.43 166.906 15.01 166.886 14.59C166.886 14.45 166.886 14.31 166.886 14.17C166.886 14.03 166.886 13.89 166.886 13.75C166.926 13.01 167.066 12.28 167.306 11.56C167.386 11.34 167.466 11.13 167.546 10.93C167.586 10.83 167.636 10.72 167.696 10.6C167.716 10.58 167.726 10.55 167.726 10.51L167.786 10.45C167.786 10.43 167.796 10.41 167.816 10.39C167.816 10.35 167.826 10.32 167.846 10.3L167.936 10.18C167.996 10.06 168.056 9.95 168.116 9.85C168.756 8.81 169.586 7.95 170.606 7.27C170.706 7.21 170.806 7.14 170.906 7.06L170.996 7.03C171.076 6.97 171.156 6.92 171.236 6.88H171.266C171.266 6.88 171.276 6.88 171.296 6.88C171.316 6.86 171.336 6.84 171.356 6.82C171.476 6.76 171.576 6.71 171.656 6.67C171.776 6.61 171.896 6.56 172.016 6.52C172.016 6.52 172.026 6.52 172.046 6.52C172.066 6.5 172.076 6.49 172.076 6.49L172.106 6.46C172.186 6.44 172.276 6.41 172.376 6.37C172.416 6.35 172.446 6.34 172.466 6.34C172.606 6.3 172.726 6.26 172.826 6.22C172.926 6.18 173.046 6.15 173.186 6.13C173.186 6.11 173.196 6.1 173.216 6.1C173.236 6.1 173.246 6.1 173.246 6.1H173.276C173.356 6.08 173.446 6.06 173.546 6.04L173.636 6.01C173.756 5.99 173.886 5.97 174.026 5.95H174.056C174.156 5.93 174.276 5.91 174.416 5.89C174.436 5.89 174.456 5.89 174.476 5.89C174.496 5.89 174.506 5.89 174.506 5.89H174.536C174.636 5.87 174.736 5.86 174.836 5.86C174.856 5.86 174.876 5.86 174.896 5.86C174.916 5.86 174.926 5.86 174.926 5.86C175.066 5.86 175.196 5.86 175.316 5.86C175.436 5.86 175.566 5.86 175.706 5.86H175.796C176.056 5.88 176.316 5.91 176.576 5.95H176.666C176.906 5.99 177.146 6.04 177.386 6.1L177.476 6.13C177.616 6.15 177.746 6.18 177.866 6.22C177.966 6.26 178.076 6.3 178.196 6.34C178.216 6.34 178.246 6.35 178.286 6.37C178.366 6.41 178.456 6.44 178.556 6.46L178.586 6.49C178.726 6.55 178.866 6.61 179.006 6.67L179.066 6.7C179.106 6.72 179.166 6.75 179.246 6.79L179.276 6.82L179.216 6.94L179.306 6.82C179.346 6.84 179.376 6.86 179.396 6.88C179.576 6.98 179.756 7.08 179.936 7.18V7.21C180.076 7.29 180.216 7.38 180.356 7.48L180.386 7.51C180.406 7.53 180.436 7.55 180.476 7.57C180.576 7.65 180.686 7.74 180.806 7.84L180.866 7.9C180.966 7.98 181.056 8.06 181.136 8.14H181.166C181.226 8.22 181.286 8.29 181.346 8.35L181.406 8.41C181.506 8.51 181.606 8.61 181.706 8.71L181.616 8.8L181.706 8.74L181.766 8.77C181.806 8.83 181.856 8.9 181.916 8.98L181.976 9.04C182.056 9.12 182.116 9.2 182.156 9.28L182.186 9.31C182.226 9.37 182.276 9.44 182.336 9.52L182.426 9.64C182.466 9.72 182.506 9.78 182.546 9.82L182.696 10.09C182.996 10.65 183.236 11.23 183.416 11.83ZM178.556 12.37C178.636 12.37 178.696 12.34 178.736 12.28C178.796 12.22 178.816 12.15 178.796 12.07C178.696 11.47 178.336 10.97 177.716 10.57C177.096 10.17 176.366 9.97 175.526 9.97C175.006 9.97 174.506 10.06 174.026 10.24C173.546 10.42 173.146 10.67 172.826 10.99C172.506 11.31 172.316 11.67 172.256 12.07C172.236 12.13 172.246 12.2 172.286 12.28C172.346 12.34 172.416 12.37 172.496 12.37H178.556ZM197.419 7.51C198.199 8.27 198.709 9.03 198.949 9.79C199.209 10.55 199.339 11.55 199.339 12.79V21.76C199.339 21.92 199.249 22 199.069 22H194.329C194.169 22 194.089 21.92 194.089 21.76V13.06C194.089 12.26 193.989 11.65 193.789 11.23C193.669 10.99 193.519 10.8 193.339 10.66C193.059 10.44 192.669 10.33 192.169 10.33C191.189 10.33 190.579 10.6 190.339 11.14C190.159 11.5 190.069 12.14 190.069 13.06V21.76C190.069 21.92 189.989 22 189.829 22H185.059C184.899 22 184.819 21.92 184.819 21.76V6.34C184.819 6.18 184.899 6.1 185.059 6.1H189.529C189.689 6.1 189.769 6.18 189.769 6.34V6.79C189.769 6.83 189.789 6.87 189.829 6.91C189.889 6.93 189.939 6.92 189.979 6.88C190.639 6.42 191.339 6.12 192.079 5.98C192.819 5.84 193.459 5.82 193.999 5.92C194.539 6 195.069 6.15 195.589 6.37C196.109 6.59 196.459 6.77 196.639 6.91C196.839 7.03 196.979 7.12 197.059 7.18C197.199 7.28 197.319 7.39 197.419 7.51ZM209.795 12.88C210.135 13.04 210.455 13.23 210.755 13.45C211.075 13.65 211.425 13.93 211.805 14.29C212.205 14.65 212.515 15.09 212.735 15.61C212.955 16.13 213.055 16.68 213.035 17.26C212.995 17.82 212.855 18.41 212.615 19.03C212.135 20.03 211.375 20.82 210.335 21.4C209.295 21.96 208.095 22.24 206.735 22.24C206.355 22.24 205.965 22.22 205.565 22.18C204.325 22.04 203.255 21.72 202.355 21.22C201.435 20.58 200.745 19.71 200.285 18.61C200.245 18.55 200.245 18.49 200.285 18.43C200.325 18.35 200.385 18.3 200.465 18.28L204.815 17.35C204.935 17.31 205.025 17.34 205.085 17.44C205.365 17.86 205.735 18.1 206.195 18.16C206.715 18.22 207.105 18.13 207.365 17.89C207.545 17.71 207.625 17.5 207.605 17.26C207.565 16.98 207.415 16.74 207.155 16.54C206.895 16.34 206.345 16.04 205.505 15.64H205.475C204.975 15.4 204.575 15.2 204.275 15.04C203.935 14.9 203.625 14.75 203.345 14.59H203.315C203.255 14.55 203.215 14.52 203.195 14.5C202.695 14.22 202.255 13.92 201.875 13.6C201.515 13.26 201.225 12.91 201.005 12.55C200.785 12.17 200.635 11.78 200.555 11.38C200.455 10.86 200.485 10.32 200.645 9.76C200.805 9.2 200.965 8.8 201.125 8.56C201.285 8.3 201.435 8.07 201.575 7.87C201.915 7.49 202.305 7.16 202.745 6.88C204.125 6.02 205.725 5.69 207.545 5.89C208.625 6.03 209.585 6.32 210.425 6.76C210.825 6.96 211.195 7.2 211.535 7.48C212.135 8.04 212.515 8.71 212.675 9.49C212.715 9.65 212.655 9.75 212.495 9.79L208.205 10.63C208.065 10.67 207.965 10.62 207.905 10.48C207.745 10.1 207.435 9.88 206.975 9.82C206.575 9.78 206.255 9.88 206.015 10.12C205.855 10.32 205.795 10.52 205.835 10.72C205.975 11.16 206.635 11.62 207.815 12.1C208.195 12.26 208.495 12.38 208.715 12.46C209.095 12.6 209.455 12.74 209.795 12.88Z" fill="url(#paint0_linear_6084_352)"/>
<defs>
<linearGradient id="paint0_linear_6084_352" x1="242.83" y1="-42.6856" x2="-27.3622" y2="0.198606" gradientUnits="userSpaceOnUse">
<stop stop-color="#F3FC1F"/>
<stop offset="0.46875" stop-color="#F3FC1F"/>
<stop offset="1" stop-color="#00FF80"/>
</linearGradient>
</defs>
</svg>
