<svg width="100" height="24" viewBox="0 0 100 24" fill="none" xmlns="http://www.w3.org/2000/svg">
<path d="M20.736 0.535999C20.8213 0.535999 20.8853 0.578666 20.928 0.664C20.992 0.749333 21.0133 0.834666 20.992 0.919998L13.568 22.84C13.5253 22.968 13.44 23.032 13.312 23.032H8.032C7.904 23.032 7.81867 22.968 7.776 22.84L0.352 0.919998C0.330667 0.834666 0.341333 0.749333 0.384 0.664C0.448 0.578666 0.522667 0.535999 0.608 0.535999H6.816C6.944 0.535999 7.02933 0.610666 7.072 0.759998L10.4 13.592C10.4427 13.72 10.528 13.784 10.656 13.784C10.8053 13.784 10.9013 13.72 10.944 13.592L14.272 0.759998C14.3147 0.610666 14.4 0.535999 14.528 0.535999H20.736ZM35.9245 12.152C36.1805 12.9627 36.3085 13.7947 36.3085 14.648C36.3085 15.1387 36.2552 15.6613 36.1485 16.216C36.1272 16.3653 36.0418 16.44 35.8925 16.44H24.0205C23.9138 16.44 23.8285 16.4933 23.7645 16.6C23.7218 16.6853 23.7218 16.7707 23.7645 16.856C24.1485 17.4747 24.6498 17.9653 25.2685 18.328C25.8872 18.6907 26.5485 18.872 27.2525 18.872C28.5538 18.872 29.6205 18.3493 30.4525 17.304C30.5165 17.1973 30.6018 17.1547 30.7085 17.176L35.2525 18.008C35.3378 18.0293 35.4018 18.0827 35.4445 18.168C35.4872 18.232 35.4872 18.3067 35.4445 18.392C35.3165 18.6907 35.2205 18.8933 35.1565 19L35.0925 19.128C35.0072 19.2347 34.9218 19.352 34.8365 19.48C34.7512 19.6507 34.6552 19.8 34.5485 19.928L34.4845 19.992C34.4418 20.0347 34.4098 20.0773 34.3885 20.12L34.3565 20.184C34.2925 20.248 34.2285 20.3227 34.1645 20.408L34.1005 20.472C33.9938 20.5787 33.8872 20.6853 33.7805 20.792L33.7165 20.856C33.6525 20.9413 33.5885 21.016 33.5245 21.08H33.4925C33.4072 21.1653 33.3218 21.24 33.2365 21.304L33.1725 21.4L33.0445 21.304L33.1405 21.4C33.0125 21.5067 32.8952 21.6027 32.7885 21.688L32.6925 21.784C32.5432 21.8693 32.3938 21.9653 32.2445 22.072L32.2125 22.104C32.0418 22.2107 31.8712 22.3067 31.7005 22.392L31.6365 22.424C31.5938 22.4453 31.5618 22.4667 31.5405 22.488L31.5085 22.52C31.4232 22.5413 31.3485 22.5733 31.2845 22.616L31.2525 22.648C31.0818 22.712 30.9218 22.776 30.7725 22.84L30.7405 22.872C30.6338 22.9147 30.5378 22.9467 30.4525 22.968L30.3565 23C30.2285 23.0427 30.1112 23.0853 30.0045 23.128C29.8765 23.1707 29.7378 23.2027 29.5885 23.224L29.4925 23.256C29.2365 23.32 28.9805 23.3733 28.7245 23.416L28.6285 23.448C28.3512 23.4693 28.0845 23.4907 27.8285 23.512H27.7005C27.5512 23.5333 27.4125 23.544 27.2845 23.544C27.1565 23.544 27.0178 23.5333 26.8685 23.512C26.8258 23.512 26.8045 23.512 26.8045 23.512H26.7725C26.6658 23.512 26.5592 23.5013 26.4525 23.48H26.4205C26.3992 23.48 26.3672 23.48 26.3245 23.48C26.1752 23.4587 26.0472 23.4373 25.9405 23.416H25.8445C25.7378 23.3947 25.6312 23.3733 25.5245 23.352L25.3965 23.32C25.3112 23.2987 25.2152 23.2773 25.1085 23.256H25.0765C25.0552 23.256 25.0338 23.2453 25.0125 23.224C24.8632 23.2027 24.7352 23.1707 24.6285 23.128C24.5218 23.1067 24.3938 23.064 24.2445 23C24.2018 23 24.1698 22.9893 24.1485 22.968C24.0418 22.9253 23.9458 22.8933 23.8605 22.872L23.8285 22.84C23.8072 22.84 23.7858 22.8293 23.7645 22.808C23.6365 22.7653 23.5085 22.712 23.3805 22.648C23.2952 22.6053 23.1778 22.552 23.0285 22.488C23.0285 22.4667 23.0072 22.4453 22.9645 22.424H22.9325C22.8472 22.3813 22.7618 22.3387 22.6765 22.296L22.5805 22.232C22.4738 22.1467 22.3672 22.072 22.2605 22.008C21.1725 21.2827 20.2872 20.3653 19.6045 19.256C19.5405 19.1707 19.4872 19.0747 19.4445 18.968L19.4125 18.936C19.3698 18.872 19.3165 18.776 19.2525 18.648V18.616C19.2312 18.5947 19.2098 18.5627 19.1885 18.52C19.0178 18.1787 18.8685 17.816 18.7405 17.432C18.6765 17.2187 18.6232 17.0267 18.5805 16.856C18.5378 16.728 18.5058 16.5893 18.4845 16.44C18.3778 15.992 18.3138 15.544 18.2925 15.096C18.2925 14.9467 18.2925 14.7973 18.2925 14.648C18.2925 14.4987 18.2925 14.3493 18.2925 14.2C18.3352 13.4107 18.4845 12.632 18.7405 11.864C18.8258 11.6293 18.9112 11.4053 18.9965 11.192C19.0392 11.0853 19.0925 10.968 19.1565 10.84C19.1778 10.8187 19.1885 10.7867 19.1885 10.744L19.2525 10.68C19.2525 10.6587 19.2632 10.6373 19.2845 10.616C19.2845 10.5733 19.2952 10.5413 19.3165 10.52L19.4125 10.392C19.4765 10.264 19.5405 10.1467 19.6045 10.04C20.2872 8.93067 21.1725 8.01333 22.2605 7.288C22.3672 7.224 22.4738 7.14933 22.5805 7.064L22.6765 7.032C22.7618 6.968 22.8472 6.91467 22.9325 6.872H22.9645C22.9645 6.872 22.9752 6.872 22.9965 6.872C23.0178 6.85067 23.0392 6.82933 23.0605 6.808C23.1885 6.744 23.2952 6.69067 23.3805 6.648C23.5085 6.584 23.6365 6.53067 23.7645 6.488C23.7645 6.488 23.7752 6.488 23.7965 6.488C23.8178 6.46667 23.8285 6.456 23.8285 6.456L23.8605 6.424C23.9458 6.40267 24.0418 6.37067 24.1485 6.328C24.1912 6.30667 24.2232 6.296 24.2445 6.296C24.3938 6.25333 24.5218 6.21067 24.6285 6.168C24.7352 6.12533 24.8632 6.09333 25.0125 6.072C25.0125 6.05067 25.0232 6.04 25.0445 6.04C25.0658 6.04 25.0765 6.04 25.0765 6.04H25.1085C25.1938 6.01867 25.2898 5.99733 25.3965 5.976L25.4925 5.944C25.6205 5.92267 25.7592 5.90133 25.9085 5.88H25.9405C26.0472 5.85867 26.1752 5.83733 26.3245 5.816C26.3458 5.816 26.3672 5.816 26.3885 5.816C26.4098 5.816 26.4205 5.816 26.4205 5.816H26.4525C26.5592 5.79467 26.6658 5.784 26.7725 5.784C26.7938 5.784 26.8152 5.784 26.8365 5.784C26.8578 5.784 26.8685 5.784 26.8685 5.784C27.0178 5.784 27.1565 5.784 27.2845 5.784C27.4125 5.784 27.5512 5.784 27.7005 5.784H27.7965C28.0738 5.80533 28.3512 5.83733 28.6285 5.88H28.7245C28.9805 5.92267 29.2365 5.976 29.4925 6.04L29.5885 6.072C29.7378 6.09333 29.8765 6.12533 30.0045 6.168C30.1112 6.21067 30.2285 6.25333 30.3565 6.296C30.3778 6.296 30.4098 6.30667 30.4525 6.328C30.5378 6.37067 30.6338 6.40267 30.7405 6.424L30.7725 6.456C30.9218 6.52 31.0712 6.584 31.2205 6.648L31.2845 6.68C31.3272 6.70133 31.3912 6.73333 31.4765 6.776L31.5085 6.808L31.4445 6.936L31.5405 6.808C31.5832 6.82933 31.6152 6.85067 31.6365 6.872C31.8285 6.97867 32.0205 7.08533 32.2125 7.192V7.224C32.3618 7.30933 32.5112 7.40533 32.6605 7.512L32.6925 7.544C32.7138 7.56533 32.7458 7.58667 32.7885 7.608C32.8952 7.69333 33.0125 7.78933 33.1405 7.896L33.2045 7.96C33.3112 8.04533 33.4072 8.13067 33.4925 8.216H33.5245C33.5885 8.30133 33.6525 8.376 33.7165 8.44L33.7805 8.504C33.8872 8.61067 33.9938 8.71733 34.1005 8.824L34.0045 8.92L34.1005 8.856L34.1645 8.888C34.2072 8.952 34.2605 9.02667 34.3245 9.112L34.3885 9.176C34.4738 9.26133 34.5378 9.34667 34.5805 9.432L34.6125 9.464C34.6552 9.528 34.7085 9.60267 34.7725 9.688L34.8685 9.816C34.9112 9.90133 34.9538 9.96533 34.9965 10.008L35.1565 10.296C35.4765 10.8933 35.7325 11.512 35.9245 12.152ZM30.7405 12.728C30.8258 12.728 30.8898 12.696 30.9325 12.632C30.9965 12.568 31.0178 12.4933 30.9965 12.408C30.8898 11.768 30.5058 11.2347 29.8445 10.808C29.1832 10.3813 28.4045 10.168 27.5085 10.168C26.9538 10.168 26.4205 10.264 25.9085 10.456C25.3965 10.648 24.9698 10.9147 24.6285 11.256C24.2872 11.5973 24.0845 11.9813 24.0205 12.408C23.9992 12.472 24.0098 12.5467 24.0525 12.632C24.1165 12.696 24.1912 12.728 24.2765 12.728H30.7405ZM46.8443 13.272C47.2069 13.4427 47.5483 13.6453 47.8683 13.88C48.2096 14.0933 48.5829 14.392 48.9883 14.776C49.4149 15.16 49.7456 15.6293 49.9803 16.184C50.2149 16.7387 50.3216 17.3253 50.3003 17.944C50.2576 18.5413 50.1083 19.1707 49.8523 19.832C49.3403 20.8987 48.5296 21.7413 47.4203 22.36C46.3109 22.9573 45.0309 23.256 43.5803 23.256C43.1749 23.256 42.7589 23.2347 42.3323 23.192C41.0096 23.0427 39.8683 22.7013 38.9083 22.168C37.9269 21.4853 37.1909 20.5573 36.7003 19.384C36.6576 19.32 36.6576 19.256 36.7003 19.192C36.7429 19.1067 36.8069 19.0533 36.8923 19.032L41.5323 18.04C41.6603 17.9973 41.7563 18.0293 41.8203 18.136C42.1189 18.584 42.5136 18.84 43.0043 18.904C43.5589 18.968 43.9749 18.872 44.2523 18.616C44.4443 18.424 44.5296 18.2 44.5083 17.944C44.4656 17.6453 44.3056 17.3893 44.0283 17.176C43.7509 16.9627 43.1643 16.6427 42.2683 16.216H42.2363C41.7029 15.96 41.2763 15.7467 40.9563 15.576C40.5936 15.4267 40.2629 15.2667 39.9643 15.096H39.9323C39.8683 15.0533 39.8256 15.0213 39.8043 15C39.2709 14.7013 38.8016 14.3813 38.3963 14.04C38.0123 13.6773 37.7029 13.304 37.4683 12.92C37.2336 12.5147 37.0736 12.0987 36.9883 11.672C36.8816 11.1173 36.9136 10.5413 37.0843 9.944C37.2549 9.34667 37.4256 8.92 37.5963 8.664C37.7669 8.38667 37.9269 8.14133 38.0763 7.928C38.4389 7.52267 38.8549 7.17067 39.3243 6.872C40.7963 5.95467 42.5029 5.60267 44.4443 5.816C45.5963 5.96533 46.6203 6.27467 47.5163 6.744C47.9429 6.95733 48.3376 7.21333 48.7003 7.512C49.3403 8.10933 49.7456 8.824 49.9163 9.656C49.9589 9.82667 49.8949 9.93333 49.7243 9.976L45.1483 10.872C44.9989 10.9147 44.8923 10.8613 44.8283 10.712C44.6576 10.3067 44.3269 10.072 43.8363 10.008C43.4096 9.96533 43.0683 10.072 42.8123 10.328C42.6416 10.5413 42.5776 10.7547 42.6203 10.968C42.7696 11.4373 43.4736 11.928 44.7323 12.44C45.1376 12.6107 45.4576 12.7387 45.6923 12.824C46.0976 12.9733 46.4816 13.1227 46.8443 13.272ZM60.964 18.584C61.0493 18.584 61.1133 18.616 61.156 18.68C61.22 18.744 61.252 18.8187 61.252 18.904L60.644 22.904C60.6227 23.0533 60.5373 23.128 60.388 23.128C59.0013 23.2133 58.1267 23.256 57.764 23.256C57.7427 23.256 57.7213 23.256 57.7 23.256C56.2493 23.192 55.1507 22.7973 54.404 22.072C53.6573 21.3467 53.284 20.3227 53.284 19V10.84C53.284 10.6693 53.188 10.584 52.996 10.584H51.236C51.0653 10.584 50.98 10.488 50.98 10.296V6.296C50.98 6.104 51.0653 6.008 51.236 6.008H52.996C53.188 6.008 53.284 5.92267 53.284 5.752V1.112C53.284 0.919999 53.3693 0.823999 53.54 0.823999H58.308C58.4787 0.823999 58.564 0.919999 58.564 1.112V5.752C58.564 5.92267 58.6493 6.008 58.82 6.008H60.58C60.772 6.008 60.868 6.104 60.868 6.296V10.296C60.868 10.488 60.772 10.584 60.58 10.584H58.82C58.6493 10.584 58.564 10.6693 58.564 10.84C58.564 14.5733 58.564 16.4507 58.564 16.472V16.568C58.5427 17.3787 58.66 17.9333 58.916 18.232C59.172 18.4667 59.556 18.584 60.068 18.584H60.964ZM79.5183 12.152C79.7743 12.9627 79.9023 13.7947 79.9023 14.648C79.9023 15.1387 79.8489 15.6613 79.7423 16.216C79.7209 16.3653 79.6356 16.44 79.4862 16.44H67.6143C67.5076 16.44 67.4223 16.4933 67.3583 16.6C67.3156 16.6853 67.3156 16.7707 67.3583 16.856C67.7423 17.4747 68.2436 17.9653 68.8623 18.328C69.4809 18.6907 70.1423 18.872 70.8463 18.872C72.1476 18.872 73.2143 18.3493 74.0463 17.304C74.1103 17.1973 74.1956 17.1547 74.3023 17.176L78.8463 18.008C78.9316 18.0293 78.9956 18.0827 79.0382 18.168C79.0809 18.232 79.0809 18.3067 79.0382 18.392C78.9103 18.6907 78.8143 18.8933 78.7503 19L78.6863 19.128C78.6009 19.2347 78.5156 19.352 78.4303 19.48C78.3449 19.6507 78.2489 19.8 78.1423 19.928L78.0783 19.992C78.0356 20.0347 78.0036 20.0773 77.9823 20.12L77.9503 20.184C77.8863 20.248 77.8223 20.3227 77.7583 20.408L77.6943 20.472C77.5876 20.5787 77.4809 20.6853 77.3743 20.792L77.3103 20.856C77.2463 20.9413 77.1823 21.016 77.1183 21.08H77.0863C77.0009 21.1653 76.9156 21.24 76.8303 21.304L76.7663 21.4L76.6383 21.304L76.7343 21.4C76.6063 21.5067 76.4889 21.6027 76.3823 21.688L76.2863 21.784C76.1369 21.8693 75.9876 21.9653 75.8383 22.072L75.8063 22.104C75.6356 22.2107 75.4649 22.3067 75.2943 22.392L75.2303 22.424C75.1876 22.4453 75.1556 22.4667 75.1343 22.488L75.1023 22.52C75.0169 22.5413 74.9423 22.5733 74.8783 22.616L74.8463 22.648C74.6756 22.712 74.5156 22.776 74.3663 22.84L74.3343 22.872C74.2276 22.9147 74.1316 22.9467 74.0463 22.968L73.9503 23C73.8223 23.0427 73.7049 23.0853 73.5983 23.128C73.4703 23.1707 73.3316 23.2027 73.1823 23.224L73.0863 23.256C72.8303 23.32 72.5743 23.3733 72.3183 23.416L72.2223 23.448C71.9449 23.4693 71.6783 23.4907 71.4223 23.512H71.2943C71.1449 23.5333 71.0063 23.544 70.8783 23.544C70.7503 23.544 70.6116 23.5333 70.4623 23.512C70.4196 23.512 70.3983 23.512 70.3983 23.512H70.3663C70.2596 23.512 70.1529 23.5013 70.0463 23.48H70.0143C69.9929 23.48 69.9609 23.48 69.9183 23.48C69.7689 23.4587 69.6409 23.4373 69.5343 23.416H69.4383C69.3316 23.3947 69.2249 23.3733 69.1183 23.352L68.9903 23.32C68.9049 23.2987 68.8089 23.2773 68.7023 23.256H68.6703C68.6489 23.256 68.6276 23.2453 68.6063 23.224C68.4569 23.2027 68.3289 23.1707 68.2223 23.128C68.1156 23.1067 67.9876 23.064 67.8383 23C67.7956 23 67.7636 22.9893 67.7423 22.968C67.6356 22.9253 67.5396 22.8933 67.4543 22.872L67.4223 22.84C67.4009 22.84 67.3796 22.8293 67.3583 22.808C67.2303 22.7653 67.1023 22.712 66.9743 22.648C66.8889 22.6053 66.7716 22.552 66.6223 22.488C66.6223 22.4667 66.6009 22.4453 66.5583 22.424H66.5263C66.4409 22.3813 66.3556 22.3387 66.2703 22.296L66.1743 22.232C66.0676 22.1467 65.9609 22.072 65.8543 22.008C64.7663 21.2827 63.8809 20.3653 63.1983 19.256C63.1343 19.1707 63.0809 19.0747 63.0383 18.968L63.0063 18.936C62.9636 18.872 62.9103 18.776 62.8463 18.648V18.616C62.8249 18.5947 62.8036 18.5627 62.7823 18.52C62.6116 18.1787 62.4623 17.816 62.3343 17.432C62.2703 17.2187 62.2169 17.0267 62.1743 16.856C62.1316 16.728 62.0996 16.5893 62.0783 16.44C61.9716 15.992 61.9076 15.544 61.8863 15.096C61.8863 14.9467 61.8863 14.7973 61.8863 14.648C61.8863 14.4987 61.8863 14.3493 61.8863 14.2C61.9289 13.4107 62.0783 12.632 62.3343 11.864C62.4196 11.6293 62.5049 11.4053 62.5903 11.192C62.6329 11.0853 62.6863 10.968 62.7503 10.84C62.7716 10.8187 62.7823 10.7867 62.7823 10.744L62.8463 10.68C62.8463 10.6587 62.8569 10.6373 62.8783 10.616C62.8783 10.5733 62.8889 10.5413 62.9103 10.52L63.0063 10.392C63.0703 10.264 63.1343 10.1467 63.1983 10.04C63.8809 8.93067 64.7663 8.01333 65.8543 7.288C65.9609 7.224 66.0676 7.14933 66.1743 7.064L66.2703 7.032C66.3556 6.968 66.4409 6.91467 66.5263 6.872H66.5583C66.5583 6.872 66.5689 6.872 66.5903 6.872C66.6116 6.85067 66.6329 6.82933 66.6543 6.808C66.7823 6.744 66.8889 6.69067 66.9743 6.648C67.1023 6.584 67.2303 6.53067 67.3583 6.488C67.3583 6.488 67.3689 6.488 67.3903 6.488C67.4116 6.46667 67.4223 6.456 67.4223 6.456L67.4543 6.424C67.5396 6.40267 67.6356 6.37067 67.7423 6.328C67.7849 6.30667 67.8169 6.296 67.8383 6.296C67.9876 6.25333 68.1156 6.21067 68.2223 6.168C68.3289 6.12533 68.4569 6.09333 68.6063 6.072C68.6063 6.05067 68.6169 6.04 68.6383 6.04C68.6596 6.04 68.6703 6.04 68.6703 6.04H68.7023C68.7876 6.01867 68.8836 5.99733 68.9903 5.976L69.0863 5.944C69.2143 5.92267 69.3529 5.90133 69.5023 5.88H69.5343C69.6409 5.85867 69.7689 5.83733 69.9183 5.816C69.9396 5.816 69.9609 5.816 69.9823 5.816C70.0036 5.816 70.0143 5.816 70.0143 5.816H70.0463C70.1529 5.79467 70.2596 5.784 70.3663 5.784C70.3876 5.784 70.4089 5.784 70.4303 5.784C70.4516 5.784 70.4623 5.784 70.4623 5.784C70.6116 5.784 70.7503 5.784 70.8783 5.784C71.0063 5.784 71.1449 5.784 71.2943 5.784H71.3903C71.6676 5.80533 71.9449 5.83733 72.2223 5.88H72.3183C72.5743 5.92267 72.8303 5.976 73.0863 6.04L73.1823 6.072C73.3316 6.09333 73.4703 6.12533 73.5983 6.168C73.7049 6.21067 73.8223 6.25333 73.9503 6.296C73.9716 6.296 74.0036 6.30667 74.0463 6.328C74.1316 6.37067 74.2276 6.40267 74.3343 6.424L74.3663 6.456C74.5156 6.52 74.6649 6.584 74.8143 6.648L74.8783 6.68C74.9209 6.70133 74.9849 6.73333 75.0703 6.776L75.1023 6.808L75.0383 6.936L75.1343 6.808C75.1769 6.82933 75.2089 6.85067 75.2303 6.872C75.4223 6.97867 75.6143 7.08533 75.8063 7.192V7.224C75.9556 7.30933 76.1049 7.40533 76.2543 7.512L76.2863 7.544C76.3076 7.56533 76.3396 7.58667 76.3823 7.608C76.4889 7.69333 76.6063 7.78933 76.7343 7.896L76.7983 7.96C76.9049 8.04533 77.0009 8.13067 77.0863 8.216H77.1183C77.1823 8.30133 77.2463 8.376 77.3103 8.44L77.3743 8.504C77.4809 8.61067 77.5876 8.71733 77.6943 8.824L77.5983 8.92L77.6943 8.856L77.7583 8.888C77.8009 8.952 77.8543 9.02667 77.9183 9.112L77.9823 9.176C78.0676 9.26133 78.1316 9.34667 78.1743 9.432L78.2063 9.464C78.2489 9.528 78.3023 9.60267 78.3663 9.688L78.4623 9.816C78.5049 9.90133 78.5476 9.96533 78.5903 10.008L78.7503 10.296C79.0703 10.8933 79.3263 11.512 79.5183 12.152ZM74.3343 12.728C74.4196 12.728 74.4836 12.696 74.5263 12.632C74.5903 12.568 74.6116 12.4933 74.5903 12.408C74.4836 11.768 74.0996 11.2347 73.4383 10.808C72.7769 10.3813 71.9983 10.168 71.1023 10.168C70.5476 10.168 70.0143 10.264 69.5023 10.456C68.9903 10.648 68.5636 10.9147 68.2223 11.256C67.8809 11.5973 67.6783 11.9813 67.6143 12.408C67.5929 12.472 67.6036 12.5467 67.6463 12.632C67.7103 12.696 67.7849 12.728 67.8703 12.728H74.3343ZM99.543 0.695999C99.735 0.695999 99.831 0.781333 99.831 0.952V22.712C99.831 22.904 99.735 23 99.543 23H94.807C94.615 23 94.519 22.904 94.519 22.712V22.456C94.519 22.3067 94.455 22.2747 94.327 22.36C92.9403 23.128 91.447 23.512 89.847 23.512C87.3723 23.512 85.2497 22.648 83.479 20.92C81.7297 19.192 80.855 17.1013 80.855 14.648C80.855 12.1947 81.7297 10.104 83.479 8.376C85.2497 6.62667 87.3723 5.752 89.847 5.752C91.447 5.752 92.9403 6.14667 94.327 6.936C94.3697 6.95733 94.4123 6.95733 94.455 6.936C94.4977 6.91467 94.519 6.872 94.519 6.808V0.952C94.519 0.781333 94.615 0.695999 94.807 0.695999H99.543ZM90.679 18.712C91.7883 18.712 92.7057 18.3173 93.431 17.528C94.1563 16.7387 94.519 15.7787 94.519 14.648C94.519 13.496 94.1563 12.536 93.431 11.768C92.7057 10.9787 91.7883 10.584 90.679 10.584C89.527 10.584 88.5457 10.9787 87.735 11.768C86.9457 12.5573 86.551 13.5173 86.551 14.648C86.551 15.7573 86.9457 16.7173 87.735 17.528C88.5457 18.3173 89.527 18.712 90.679 18.712Z" fill="url(#paint0_linear_5685_11989)"/>
<defs>
<linearGradient id="paint0_linear_5685_11989" x1="119.167" y1="-43.6856" x2="-15.9483" y2="-33.1616" gradientUnits="userSpaceOnUse">
<stop stop-color="#F3FC1F"/>
<stop offset="0.46875" stop-color="#F3FC1F"/>
<stop offset="1" stop-color="#00FF80"/>
</linearGradient>
</defs>
</svg>
